<mxfile host="app.diagrams.net" modified="2023-03-02T05:00:56.036Z" agent="5.0 (Windows NT 10.0; Win64; x64) AppleWebKit/537.36 (KHTML, like Gecko) Chrome/108.0.0.0 Safari/537.36 Edg/108.0.1462.76" etag="fwtoLJnEFn0xzWjwGZj7" version="20.8.23" type="github">
  <diagram id="6a731a19-8d31-9384-78a2-239565b7b9f0" name="Page-1">
    <mxGraphModel dx="2662" dy="1628" grid="1" gridSize="10" guides="1" tooltips="1" connect="1" arrows="1" fold="1" page="1" pageScale="1" pageWidth="1169" pageHeight="827" background="none" math="0" shadow="0">
      <root>
        <mxCell id="0" />
        <mxCell id="1" parent="0" />
        <mxCell id="1745" value="" style="edgeStyle=none;rounded=0;jumpStyle=none;html=1;shadow=0;labelBackgroundColor=none;startArrow=none;startFill=0;endArrow=classic;endFill=1;jettySize=auto;orthogonalLoop=1;strokeColor=#2F5B7C;strokeWidth=3;fontFamily=Helvetica;fontSize=16;fontColor=#23445D;spacing=5;" parent="1" source="1749" target="1764" edge="1">
          <mxGeometry relative="1" as="geometry" />
        </mxCell>
        <mxCell id="1746" value="" style="edgeStyle=none;rounded=0;jumpStyle=none;html=1;shadow=0;labelBackgroundColor=none;startArrow=none;startFill=0;endArrow=classic;endFill=1;jettySize=auto;orthogonalLoop=1;strokeColor=#2F5B7C;strokeWidth=3;fontFamily=Helvetica;fontSize=16;fontColor=#23445D;spacing=5;" parent="1" source="1749" target="1771" edge="1">
          <mxGeometry relative="1" as="geometry" />
        </mxCell>
        <mxCell id="1748" value="" style="edgeStyle=none;rounded=0;jumpStyle=none;html=1;shadow=0;labelBackgroundColor=none;startArrow=none;startFill=0;endArrow=classic;endFill=1;jettySize=auto;orthogonalLoop=1;strokeColor=#2F5B7C;strokeWidth=3;fontFamily=Helvetica;fontSize=16;fontColor=#23445D;spacing=5;" parent="1" source="1749" target="1753" edge="1">
          <mxGeometry relative="1" as="geometry" />
        </mxCell>
        <mxCell id="1749" value="Canales de Comunicación" style="rounded=1;whiteSpace=wrap;html=1;shadow=0;labelBackgroundColor=none;strokeColor=none;strokeWidth=3;fillColor=#2F5B7C;fontFamily=Helvetica;fontSize=16;fontColor=#FFFFFF;align=center;fontStyle=1;spacing=5;arcSize=7;perimeterSpacing=2;" parent="1" vertex="1">
          <mxGeometry x="495" y="380.5" width="150" height="70" as="geometry" />
        </mxCell>
        <mxCell id="1750" value="" style="edgeStyle=none;rounded=1;jumpStyle=none;html=1;shadow=0;labelBackgroundColor=none;startArrow=none;startFill=0;jettySize=auto;orthogonalLoop=1;strokeColor=#E85642;strokeWidth=3;fontFamily=Helvetica;fontSize=14;fontColor=#FFFFFF;spacing=5;fontStyle=1;fillColor=#b0e3e6;" parent="1" source="1753" target="1756" edge="1">
          <mxGeometry relative="1" as="geometry" />
        </mxCell>
        <mxCell id="1751" value="" style="edgeStyle=none;rounded=1;jumpStyle=none;html=1;shadow=0;labelBackgroundColor=none;startArrow=none;startFill=0;jettySize=auto;orthogonalLoop=1;strokeColor=#E85642;strokeWidth=3;fontFamily=Helvetica;fontSize=14;fontColor=#FFFFFF;spacing=5;fontStyle=1;fillColor=#b0e3e6;" parent="1" source="1753" target="1755" edge="1">
          <mxGeometry relative="1" as="geometry" />
        </mxCell>
        <mxCell id="1752" value="" style="edgeStyle=none;rounded=1;jumpStyle=none;html=1;shadow=0;labelBackgroundColor=none;startArrow=none;startFill=0;jettySize=auto;orthogonalLoop=1;strokeColor=#E85642;strokeWidth=3;fontFamily=Helvetica;fontSize=14;fontColor=#FFFFFF;spacing=5;fontStyle=1;fillColor=#b0e3e6;" parent="1" source="1753" target="1754" edge="1">
          <mxGeometry relative="1" as="geometry" />
        </mxCell>
        <mxCell id="1753" value="Mensajes confiables transmitidos por canales no confiables" style="rounded=1;whiteSpace=wrap;html=1;shadow=0;labelBackgroundColor=none;strokeColor=none;strokeWidth=3;fillColor=#e85642;fontFamily=Helvetica;fontSize=14;fontColor=#FFFFFF;align=center;spacing=5;fontStyle=1;arcSize=7;perimeterSpacing=2;" parent="1" vertex="1">
          <mxGeometry x="320" y="500" width="150" height="74.5" as="geometry" />
        </mxCell>
        <mxCell id="1754" value="El segundo teorema de Shannon dice que cualquier velocidad de mansaje menor que la capacidad del canal existen códigos tales que la probabilidad de mensaje erróneo es menor que cualquier numero positivo" style="rounded=1;whiteSpace=wrap;html=1;shadow=0;labelBackgroundColor=none;strokeColor=none;strokeWidth=3;fillColor=#f08e81;fontFamily=Helvetica;fontSize=14;fontColor=#FFFFFF;align=center;spacing=5;fontStyle=0;arcSize=7;perimeterSpacing=2;" parent="1" vertex="1">
          <mxGeometry x="275" y="610" width="220" height="130" as="geometry" />
        </mxCell>
        <mxCell id="GrSDNWI7c1scyn-xyYOx-1788" value="" style="edgeStyle=orthogonalEdgeStyle;rounded=0;orthogonalLoop=1;jettySize=auto;html=1;entryX=1;entryY=0.5;entryDx=0;entryDy=0;" parent="1" source="1755" target="GrSDNWI7c1scyn-xyYOx-1787" edge="1">
          <mxGeometry relative="1" as="geometry" />
        </mxCell>
        <mxCell id="GrSDNWI7c1scyn-xyYOx-1791" style="edgeStyle=orthogonalEdgeStyle;rounded=0;orthogonalLoop=1;jettySize=auto;html=1;entryX=1;entryY=0.5;entryDx=0;entryDy=0;" parent="1" source="1755" target="GrSDNWI7c1scyn-xyYOx-1789" edge="1">
          <mxGeometry relative="1" as="geometry" />
        </mxCell>
        <mxCell id="GrSDNWI7c1scyn-xyYOx-1795" value="" style="edgeStyle=orthogonalEdgeStyle;rounded=0;orthogonalLoop=1;jettySize=auto;html=1;" parent="1" source="1755" target="GrSDNWI7c1scyn-xyYOx-1794" edge="1">
          <mxGeometry relative="1" as="geometry" />
        </mxCell>
        <mxCell id="1755" value="&amp;nbsp;REGLA DE DECISIÓN DEL RECEPTOR" style="rounded=1;whiteSpace=wrap;html=1;shadow=0;labelBackgroundColor=none;strokeColor=none;strokeWidth=3;fillColor=#f08e81;fontFamily=Helvetica;fontSize=14;fontColor=#FFFFFF;align=center;spacing=5;fontStyle=0;arcSize=7;perimeterSpacing=2;" parent="1" vertex="1">
          <mxGeometry x="145" y="510" width="150" height="60" as="geometry" />
        </mxCell>
        <mxCell id="GrSDNWI7c1scyn-xyYOx-1781" value="" style="edgeStyle=orthogonalEdgeStyle;rounded=0;orthogonalLoop=1;jettySize=auto;html=1;" parent="1" source="1756" target="GrSDNWI7c1scyn-xyYOx-1780" edge="1">
          <mxGeometry relative="1" as="geometry" />
        </mxCell>
        <mxCell id="GrSDNWI7c1scyn-xyYOx-1783" value="" style="edgeStyle=orthogonalEdgeStyle;rounded=0;orthogonalLoop=1;jettySize=auto;html=1;" parent="1" source="1756" target="GrSDNWI7c1scyn-xyYOx-1782" edge="1">
          <mxGeometry relative="1" as="geometry">
            <Array as="points">
              <mxPoint x="310" y="322" />
            </Array>
          </mxGeometry>
        </mxCell>
        <mxCell id="GrSDNWI7c1scyn-xyYOx-1785" value="" style="edgeStyle=orthogonalEdgeStyle;rounded=0;orthogonalLoop=1;jettySize=auto;html=1;" parent="1" source="1756" target="GrSDNWI7c1scyn-xyYOx-1784" edge="1">
          <mxGeometry relative="1" as="geometry" />
        </mxCell>
        <mxCell id="1756" value="Mensajes confiables transmitidos por canales no confiables" style="rounded=1;whiteSpace=wrap;html=1;shadow=0;labelBackgroundColor=none;strokeColor=none;strokeWidth=3;fillColor=#f08e81;fontFamily=Helvetica;fontSize=14;fontColor=#FFFFFF;align=center;spacing=5;fontStyle=0;arcSize=7;perimeterSpacing=2;" parent="1" vertex="1">
          <mxGeometry x="310" y="410" width="150" height="60" as="geometry" />
        </mxCell>
        <mxCell id="1764" value=" Información mutua en un canal" style="rounded=1;whiteSpace=wrap;html=1;shadow=0;labelBackgroundColor=none;strokeColor=none;strokeWidth=3;fillColor=#F08705;fontFamily=Helvetica;fontSize=14;fontColor=#FFFFFF;align=center;spacing=5;fontStyle=1;arcSize=7;perimeterSpacing=2;" parent="1" vertex="1">
          <mxGeometry x="495" y="200.5" width="150" height="60" as="geometry" />
        </mxCell>
        <mxCell id="GrSDNWI7c1scyn-xyYOx-1802" style="edgeStyle=orthogonalEdgeStyle;rounded=0;orthogonalLoop=1;jettySize=auto;html=1;entryX=0.5;entryY=1;entryDx=0;entryDy=0;fontFamily=Helvetica;fontSize=14;fontColor=#FFFFFF;" parent="1" source="1765" target="GrSDNWI7c1scyn-xyYOx-1800" edge="1">
          <mxGeometry relative="1" as="geometry" />
        </mxCell>
        <mxCell id="1765" value="La información mutua entre dos variables aleatorias X e&amp;nbsp; Y se puede definir de varias maneras" style="rounded=1;whiteSpace=wrap;html=1;shadow=0;labelBackgroundColor=none;strokeColor=none;strokeWidth=3;fillColor=#f5af58;fontFamily=Helvetica;fontSize=14;fontColor=#FFFFFF;align=center;spacing=5;arcSize=7;perimeterSpacing=2;" parent="1" vertex="1">
          <mxGeometry x="660" y="90.25" width="150" height="100.5" as="geometry" />
        </mxCell>
        <mxCell id="1766" value="" style="edgeStyle=none;rounded=0;jumpStyle=none;html=1;shadow=0;labelBackgroundColor=none;startArrow=none;startFill=0;endArrow=classic;endFill=1;jettySize=auto;orthogonalLoop=1;strokeColor=#F08705;strokeWidth=3;fontFamily=Helvetica;fontSize=14;fontColor=#FFFFFF;spacing=5;" parent="1" source="1764" target="1765" edge="1">
          <mxGeometry relative="1" as="geometry" />
        </mxCell>
        <mxCell id="GrSDNWI7c1scyn-xyYOx-1797" value="" style="edgeStyle=orthogonalEdgeStyle;rounded=0;orthogonalLoop=1;jettySize=auto;html=1;" parent="1" source="1769" target="GrSDNWI7c1scyn-xyYOx-1796" edge="1">
          <mxGeometry relative="1" as="geometry" />
        </mxCell>
        <mxCell id="GrSDNWI7c1scyn-xyYOx-1799" style="edgeStyle=orthogonalEdgeStyle;rounded=0;orthogonalLoop=1;jettySize=auto;html=1;entryX=1;entryY=0.5;entryDx=0;entryDy=0;fontFamily=Helvetica;fontSize=14;fontColor=#FFFFFF;" parent="1" source="1769" target="GrSDNWI7c1scyn-xyYOx-1798" edge="1">
          <mxGeometry relative="1" as="geometry" />
        </mxCell>
        <mxCell id="1769" value="La información mutua nos dice" style="rounded=1;whiteSpace=wrap;html=1;shadow=0;labelBackgroundColor=none;strokeColor=none;strokeWidth=3;fillColor=#f5af58;fontFamily=Helvetica;fontSize=14;fontColor=#FFFFFF;align=center;spacing=5;arcSize=7;perimeterSpacing=2;" parent="1" vertex="1">
          <mxGeometry x="295" y="110.5" width="150" height="60" as="geometry" />
        </mxCell>
        <mxCell id="1770" value="" style="edgeStyle=none;rounded=0;jumpStyle=none;html=1;shadow=0;labelBackgroundColor=none;startArrow=none;startFill=0;endArrow=classic;endFill=1;jettySize=auto;orthogonalLoop=1;strokeColor=#F08705;strokeWidth=3;fontFamily=Helvetica;fontSize=14;fontColor=#FFFFFF;spacing=5;" parent="1" source="1764" target="1769" edge="1">
          <mxGeometry relative="1" as="geometry" />
        </mxCell>
        <mxCell id="1771" value="Introducción" style="rounded=1;whiteSpace=wrap;html=1;shadow=0;labelBackgroundColor=none;strokeColor=none;strokeWidth=3;fillColor=#12aab5;fontFamily=Helvetica;fontSize=14;fontColor=#FFFFFF;align=center;spacing=5;fontStyle=1;arcSize=7;perimeterSpacing=2;" parent="1" vertex="1">
          <mxGeometry x="710" y="479.9999999999999" width="150" height="60" as="geometry" />
        </mxCell>
        <mxCell id="AdDeWfgGOmuDd7LMZuzZ-1779" style="edgeStyle=orthogonalEdgeStyle;rounded=0;orthogonalLoop=1;jettySize=auto;html=1;entryX=0.435;entryY=0.982;entryDx=0;entryDy=0;entryPerimeter=0;" edge="1" parent="1" source="1776" target="1778">
          <mxGeometry relative="1" as="geometry" />
        </mxCell>
        <mxCell id="AdDeWfgGOmuDd7LMZuzZ-1783" style="edgeStyle=orthogonalEdgeStyle;rounded=0;orthogonalLoop=1;jettySize=auto;html=1;entryX=0.5;entryY=1;entryDx=0;entryDy=0;" edge="1" parent="1" source="1776" target="AdDeWfgGOmuDd7LMZuzZ-1781">
          <mxGeometry relative="1" as="geometry">
            <Array as="points">
              <mxPoint x="1090" y="640" />
            </Array>
          </mxGeometry>
        </mxCell>
        <mxCell id="1776" value="El canal de comunicación constituye una vía por la que se transmite la comunicación." style="rounded=1;whiteSpace=wrap;html=1;shadow=0;labelBackgroundColor=none;strokeColor=none;strokeWidth=3;fillColor=#61c6ce;fontFamily=Helvetica;fontSize=14;fontColor=#FFFFFF;align=center;spacing=5;fontStyle=0;arcSize=7;perimeterSpacing=2;" parent="1" vertex="1">
          <mxGeometry x="880" y="580" width="150" height="100" as="geometry" />
        </mxCell>
        <mxCell id="1777" value="" style="edgeStyle=none;rounded=1;jumpStyle=none;html=1;shadow=0;labelBackgroundColor=none;startArrow=none;startFill=0;jettySize=auto;orthogonalLoop=1;strokeColor=#12AAB5;strokeWidth=3;fontFamily=Helvetica;fontSize=14;fontColor=#FFFFFF;spacing=5;fontStyle=1;fillColor=#b0e3e6;" parent="1" source="1771" target="1776" edge="1">
          <mxGeometry relative="1" as="geometry" />
        </mxCell>
        <mxCell id="AdDeWfgGOmuDd7LMZuzZ-1780" style="edgeStyle=orthogonalEdgeStyle;rounded=0;orthogonalLoop=1;jettySize=auto;html=1;" edge="1" parent="1" source="1778">
          <mxGeometry relative="1" as="geometry">
            <mxPoint x="965" y="580" as="targetPoint" />
          </mxGeometry>
        </mxCell>
        <mxCell id="AdDeWfgGOmuDd7LMZuzZ-1782" style="edgeStyle=orthogonalEdgeStyle;rounded=0;orthogonalLoop=1;jettySize=auto;html=1;entryX=0.5;entryY=0;entryDx=0;entryDy=0;" edge="1" parent="1" source="1778" target="AdDeWfgGOmuDd7LMZuzZ-1781">
          <mxGeometry relative="1" as="geometry">
            <Array as="points">
              <mxPoint x="1090" y="380" />
            </Array>
          </mxGeometry>
        </mxCell>
        <mxCell id="1778" value="medio de transmisión por el que viajan las señales portadoras de la información que pretenden intercambiar emisor y receptor" style="rounded=1;whiteSpace=wrap;html=1;shadow=0;labelBackgroundColor=none;strokeColor=none;strokeWidth=3;fillColor=#61c6ce;fontFamily=Helvetica;fontSize=14;fontColor=#FFFFFF;align=center;spacing=5;fontStyle=0;arcSize=7;perimeterSpacing=2;" parent="1" vertex="1">
          <mxGeometry x="890" y="316" width="150" height="134.5" as="geometry" />
        </mxCell>
        <mxCell id="1779" value="" style="edgeStyle=none;rounded=1;jumpStyle=none;html=1;shadow=0;labelBackgroundColor=none;startArrow=none;startFill=0;jettySize=auto;orthogonalLoop=1;strokeColor=#12AAB5;strokeWidth=3;fontFamily=Helvetica;fontSize=14;fontColor=#FFFFFF;spacing=5;fontStyle=1;fillColor=#b0e3e6;" parent="1" source="1771" target="1778" edge="1">
          <mxGeometry relative="1" as="geometry" />
        </mxCell>
        <mxCell id="GrSDNWI7c1scyn-xyYOx-1780" value="La finalidad del segundo teorema de Shannon es definir las limitaciones de un canal" style="whiteSpace=wrap;html=1;fontSize=14;fillColor=#f08e81;strokeColor=none;fontColor=#FFFFFF;rounded=1;shadow=0;labelBackgroundColor=none;strokeWidth=3;spacing=5;fontStyle=0;arcSize=7;" parent="1" vertex="1">
          <mxGeometry x="325" y="270" width="120" height="104.5" as="geometry" />
        </mxCell>
        <mxCell id="GrSDNWI7c1scyn-xyYOx-1782" value="En la actualidad la probabilidad de error es de 10-6, 10-8 incluso menores&amp;nbsp;" style="whiteSpace=wrap;html=1;fontSize=14;fillColor=#f08e81;strokeColor=none;fontColor=#FFFFFF;rounded=1;shadow=0;labelBackgroundColor=none;strokeWidth=3;spacing=5;fontStyle=0;arcSize=7;" parent="1" vertex="1">
          <mxGeometry x="175" y="260" width="120" height="92.25" as="geometry" />
        </mxCell>
        <mxCell id="GrSDNWI7c1scyn-xyYOx-1784" value="En la actualidad la probabilidad de error es de 10-6, 10-8 incluso menores&amp;nbsp;" style="whiteSpace=wrap;html=1;fontSize=14;fillColor=#f08e81;strokeColor=none;fontColor=#FFFFFF;rounded=1;shadow=0;labelBackgroundColor=none;strokeWidth=3;spacing=5;fontStyle=0;arcSize=7;" parent="1" vertex="1">
          <mxGeometry x="60" y="360" width="210" height="60" as="geometry" />
        </mxCell>
        <mxCell id="GrSDNWI7c1scyn-xyYOx-1787" value="Si una palabra esta en A0 decide que se transmitió 000" style="whiteSpace=wrap;html=1;fontSize=14;fillColor=#f08e81;strokeColor=none;fontColor=#FFFFFF;rounded=1;shadow=0;labelBackgroundColor=none;strokeWidth=3;spacing=5;fontStyle=0;arcSize=7;" parent="1" vertex="1">
          <mxGeometry x="60" y="434.5" width="140" height="60" as="geometry" />
        </mxCell>
        <mxCell id="GrSDNWI7c1scyn-xyYOx-1789" value="Si una palabra esta en el A1 se decide por 111" style="whiteSpace=wrap;html=1;fontSize=14;fillColor=#f08e81;strokeColor=none;fontColor=#FFFFFF;rounded=1;shadow=0;labelBackgroundColor=none;strokeWidth=3;spacing=5;fontStyle=0;arcSize=7;" parent="1" vertex="1">
          <mxGeometry x="60" y="600" width="140" height="60" as="geometry" />
        </mxCell>
        <mxCell id="GrSDNWI7c1scyn-xyYOx-1794" value="&amp;nbsp;Siempre que q sea menor que ½" style="whiteSpace=wrap;html=1;fontSize=14;fillColor=#f08e81;strokeColor=none;fontColor=#FFFFFF;rounded=1;shadow=0;labelBackgroundColor=none;strokeWidth=3;spacing=5;fontStyle=0;arcSize=7;" parent="1" vertex="1">
          <mxGeometry x="-10" y="510" width="120" height="60" as="geometry" />
        </mxCell>
        <mxCell id="GrSDNWI7c1scyn-xyYOx-1796" value="&lt;div style=&quot;margin-top: 0pt; margin-bottom: 0pt; margin-left: 0in; direction: ltr; unicode-bidi: embed; word-break: normal;&quot;&gt;&lt;span style=&quot;font-size: 18pt; font-size: 18pt;&quot;&gt;&lt;/span&gt;La información promedio en bits que ganamos sobre&amp;nbsp;Y&amp;nbsp;dado que&lt;br&gt;observamos&amp;nbsp;X&amp;nbsp;(y viceverza)&lt;/div&gt;" style="whiteSpace=wrap;html=1;fontSize=14;fillColor=#f5af58;strokeColor=none;fontColor=#FFFFFF;rounded=1;shadow=0;labelBackgroundColor=none;strokeWidth=3;spacing=5;arcSize=7;" parent="1" vertex="1">
          <mxGeometry y="105.25" width="220" height="70.5" as="geometry" />
        </mxCell>
        <mxCell id="GrSDNWI7c1scyn-xyYOx-1798" value="&lt;div style=&quot;margin-top: 0pt; margin-bottom: 0pt; margin-left: 0in; direction: ltr; unicode-bidi: embed; word-break: normal;&quot;&gt;&lt;span style=&quot;font-size:18.0pt&quot;&gt;&lt;/span&gt;la incerteza promedio de&amp;nbsp;Y&amp;nbsp;que eliminamos al conocer&lt;span style=&quot;font-size: 18pt; font-family: -apple-system;&quot;&gt;&amp;nbsp;&lt;/span&gt;&lt;/div&gt;" style="whiteSpace=wrap;html=1;fontSize=14;fillColor=#f5af58;strokeColor=none;fontColor=#FFFFFF;rounded=1;shadow=0;labelBackgroundColor=none;strokeWidth=3;spacing=5;arcSize=7;fontFamily=Helvetica;" parent="1" vertex="1">
          <mxGeometry x="140" y="20" width="180" height="70" as="geometry" />
        </mxCell>
        <mxCell id="GrSDNWI7c1scyn-xyYOx-1805" style="edgeStyle=orthogonalEdgeStyle;rounded=0;orthogonalLoop=1;jettySize=auto;html=1;entryX=1;entryY=0.5;entryDx=0;entryDy=0;fontFamily=Helvetica;fontSize=14;fontColor=#FFFFFF;" parent="1" source="GrSDNWI7c1scyn-xyYOx-1800" target="GrSDNWI7c1scyn-xyYOx-1804" edge="1">
          <mxGeometry relative="1" as="geometry" />
        </mxCell>
        <mxCell id="GrSDNWI7c1scyn-xyYOx-1808" style="edgeStyle=orthogonalEdgeStyle;rounded=0;orthogonalLoop=1;jettySize=auto;html=1;entryX=0.5;entryY=1;entryDx=0;entryDy=0;fontFamily=Helvetica;fontSize=14;fontColor=#FFFFFF;" parent="1" source="GrSDNWI7c1scyn-xyYOx-1800" target="GrSDNWI7c1scyn-xyYOx-1806" edge="1">
          <mxGeometry relative="1" as="geometry" />
        </mxCell>
        <mxCell id="GrSDNWI7c1scyn-xyYOx-1809" style="edgeStyle=orthogonalEdgeStyle;rounded=0;orthogonalLoop=1;jettySize=auto;html=1;entryX=0.5;entryY=1;entryDx=0;entryDy=0;fontFamily=Helvetica;fontSize=14;fontColor=#FFFFFF;" parent="1" source="GrSDNWI7c1scyn-xyYOx-1800" target="GrSDNWI7c1scyn-xyYOx-1807" edge="1">
          <mxGeometry relative="1" as="geometry" />
        </mxCell>
        <mxCell id="GrSDNWI7c1scyn-xyYOx-1813" style="edgeStyle=orthogonalEdgeStyle;rounded=0;orthogonalLoop=1;jettySize=auto;html=1;entryX=0;entryY=0.5;entryDx=0;entryDy=0;fontFamily=Helvetica;fontSize=14;fontColor=#FFFFFF;" parent="1" source="GrSDNWI7c1scyn-xyYOx-1800" target="GrSDNWI7c1scyn-xyYOx-1812" edge="1">
          <mxGeometry relative="1" as="geometry" />
        </mxCell>
        <mxCell id="GrSDNWI7c1scyn-xyYOx-1800" value="" style="shape=image;verticalLabelPosition=bottom;labelBackgroundColor=default;verticalAlign=top;aspect=fixed;imageAspect=0;image=data:image/png,iVBORw0KGgoAAAANSUhEUgAAAdsAAACDCAYAAADF0LEaAAAAAXNSR0IArs4c6QAAAARnQU1BAACxjwv8YQUAAAAJcEhZcwAAFxEAABcRAcom8z8AAIAtSURBVHhe7b2HWxVJ16/9/QXnO9857/s8884zyZlRR8ecUZSMBHNEVIyIEhVBRFSCiphzzjmLgiIgCIgRJeecc855319tZBwDKjjiODN9X+5L3d27u6pW9fqtVV1d/f8gISEhISEh0alIYishISEhIdHJSGIrISEhISHRyUhiKyEhISEh0clIYishISEhIdHJSGIrISEhISHRyUhiKyEhISEh0clIYishISEhIdHJSGIrISEhISHRyUhiKyEhISEh0clIYishISEhIdHJSGIrISEhISHRyUhiKyEhISEh0clIYishISEhIdHJSGIrISEhISHRyUhiKyEhISEh0clIYishISEhIdHJSGIrISEhISHRyUhiKyEhISEh0clIYishISEhIdHJSGIrISEhISHRyUhiKyEhISEh0cn8TcW2kea6Ksqr6qlrkLV+93dE1K22ksrqBmqbW7+SeC+NVVXUVNVQJ9qr83pGEw3VVVSL/ieZ5V3U0VArv0YbaeiURmqksbqMqpoGcSaJNmmqFn20hsqa5k68Fr4AGsX1XlVNZX3r//8kOi62smaamxpoaBCfRtGhm5poamqmqVmGrCMWa5YfR/5b8WlsoFEcr7FR/Fscp+V78d2Lc7Qe/83v5OdrPdTrCEeXG0Ni+HMexRaSV97U+v0ryOsgL7v8WA2tdRDlaWoS/5aXRX78lsqIc7Sct/HF+eXb5b+pb6C+5XfiOC+O2D6am8R5f6vDi9/Lj9vccl7hdFrP+1q9Wtr7lfO3/r7l/NWl1GaGEx4STUhCKTWNrb/5SyHqK9ql6WWbyOv5W5vI6/qiXZpFO8jER26LFpu19IsX+7WvX1RTU5RCzOMQImKyyG+Q95Q3eLVvt9r3bfuI3eQ2avmu6UV55eWW/6a+XuwjL0cJOdGhRD0NJyGvlsq/jOLKK/eiPi+vi5Y2eL2N5e0it0VLu4jvXtjiRVv9di3/1n7CHG/TKGyRHkZUWDhPk8opE87+t2O9tK28T/x2PHn7vuVfXvSbF+f+rXyi/VvKKMpSU0550jMiwiIJTa+hStj7r0FrvVrq8aINW9rhZfu8qF+z8Feyd9jqNx/RYqt3XQ8VuRTFBfE0PJmo7LqWfv0mLdfly2PJfdBvNpaf40XZWuwr7wst/5eX4bff1FMv/GTL7955TbbBb9dWS13l53lRrxea8Ftd3wwOXvympe6/lU/8vr7lGA00FyWRIa7Hx2FZZBU3tL8sn5iOia0wbl3KA4Ku72Lb5nXY2a/DyWkd69ZvZt2mS1wOSCRL7PZ+31JLRV4QgSd2sd/JHqcNG3Fav5714t97z3nhHlJKVOAtfE+sZvMGR+ycNrTs4+y8gXXr1uGwZiM7D13jTmwJuW96y+YKmlLv4bF/Ky7bL3AlUuxT+2bTVlNbFsKTC4c4uHo1TvZrcdywgQ0uG0UZHHBwWo/Lmfv4plVSVZdEyt3TnHK0x3mdEw6Oa1m7aiU2K0W5HE9x+m40CY0y2ncdy6hK8Bfn3cgOF3tWibazX/eiXi7rxb/X7mTLIW/up5dQ0foLOVVpT3h6ZSO7NzuyZq0on91KbG3XYr3hDKe8nhOf9hD/81vFMfdz6mEeGdWtP/xLILdNHlnhHlzb4sIWBwfWbdwg2sSZjU6ObBB9wt5lDy7HfXmYlkhO3mPuHtnD7jVrWee8ng3y/YRdnJ2EDTduxnGvK9cepVH0lueopzT6Jl6HRD/b5c7Vp0VUiL7zWj+VC3naI0Jdd7TYZ+UaR9Y6ye0j+sO6NaxZs40tR/24n11FRWUyKT5HObLNmbX2Tqx3FNtX2Yh+sZK1e85y1C+W8Ps3uXd4Mxu23cQtvJDK1tN82ZRQlyX6/rkDbHdch4toX+eNog3k16ejQ8t1an/oBhfux1GUFUTc3TPsF9fOxnXrX+y3wVns58Q6ud12nWDP7SgS8t/IKxvyKQ+/yfmtm9l8xAufzAoqqxNJ8D3PCXGcDWvX4iCu8w0bxbmdhX8R15zz/gucfVRARnnrMeSWE9dmcuBFTm5ax0b5NWy/GruVVi12237xEYFJ1RSnBnLv2CY2bTzFFeFXcv4KwWhDGjmhoo13bWWTg6ibvF2FHTaItlnnINpm8042nHvAg6gEKpJ98D2zj62iD24UfsRZtNmL/YRfdd6IwxE3Lj3JpkI+jPMqFTHE3jrC7vW72HcrnNCyxjYEqJq8KB9xzaxjm+NKVotrU35MeVnWi7Ze43KAXe4RJJRU0ZAXzJNz29iz0YE1wnaOa+1YLa4FmxVObN53hVsxBeS0U+GaitNIvXuIc7vXssbBidWOzqwT/t9lg9AZRxccnM9y6X4C6fJ9X/yEpqp8Uv2PcmGv6AdCjxzWrma17UqsVu9ko/AdT+LDiX58jhMu69hx/gGB2a0//Mx0TGybG6mNu8v90w6stjZBX3ckyn2+5ccfuvJN1zHMdLzG3VK5md5DfTJJPi4s1xhA/6//zY99htFf24CZC0xYf9CVi4+LCPa+hPvOxVib6jNOZTADu37LL737M1B7DlPmWmO/+RRXw4vIfE1sRSST/ZCQfZYsnWPF4m2+BObVU9W69XcqqSl5jJ9whC6LZ7BwiiLD+/Tk529+okefoYyaZozRHiH6IuKurI0j+ba46CcooPhzV37qM4KRY/WYMdecRea72XsjhOiG9optM5VRHvgdsmKt1QImaw1n+K/f0L17d7oM0kRxvBWrXG7glVRIWesv5FSlBeB3QJ/5yj/To1sf+qlMYPysxcy13Mdu91DiSpOJ9VzHliXTmW1zhnOPSyh+K2X7UpE7gSxSg65wcoUF1lOV0VLszk/de/FDP3W0p87FdMU6Vuxwxycxmoyse9zcIpz5zLFM1+jLrz1/4T89FVHUncGiZSsxW3+Gk76J5L8qtvKou/gx3vvNMZ1riPnBQHxT2mggsV9joi+PT4uL3Gox03SErft8T7dfhH36i3OMNcdmqwde6ZWUVSSR4OqMvf4Q+nf/kZ97K6E8bgb6CxZgvO4g2+8kkRgthPvUGiz0jTDe5o5HdnU7+8mfSRG1qZ64H3DBds5U9NW7M7DXD3TprchQLQPmGS/DdNNZDnmFk596n/Cb+9hgYshC3YEo9v+en3oOoo/SdKbPM8HUYSfrLonrI6e29dhyRJYf68bd9UtYMNcRm9OhxNY10NQQQ5T7QXYuNWb5DA20hvemm/ApXbv2E+edwqx1R9jrm0Oy8C0vkIttIkl3trBl+nCGdu/BzwPUUZ8yC4MlZqw54ot3kghuK1OJPG/HutkGLHC8xaWIsi8/6GlIJOPxWQ7b22I2RQUdhe/p0eMXfh6si+YUQ0xs7Fl+0Ju7IVGUxbnhvs+ZFTMnME2lO/1+/ZEufVUYoTuXheZWmG45LwK/dMpe3mMS10VzPvleO9lvaoi++VEOP8wgp3Xr61SSHezG9U3m2JmNZ7z6YAb89CPdhR/sraCFpuFmVp97RnRRJQ25jwg4uIjFKr/w64+/0HOYNlpT5jB3ngUr1x/nUlguGe0U28YCEXjd3MxBR2PmzxyH+pBu9O72HT/0GkIvtTnMWrKXY55RJIl9fxfbXFJ817N57gAUfvmZXwapoTJxNvqL7bHacRv/tEwyk27gtm4GCxbasup0JEnCyX7u67GDw8giXa+vorqskPzMZB4fMsZ2zHf07fEz3/3YG/VFW9n1uIHc99wkkaV5EbjLAN0Rffn+m2/oqTKNCc7e3ArJpai0gvKaJmqrhNCV5JIZ78XFlZOY3vP/o++I0Ux28edqWD6FxWUiWmvitUC1OYHY2xtxnKrHIhsRCUfVUCas8baNm0WCXkN1aTFFuU+JuOWIle5w+v3XtwzSmIOJcAB+mVVUtdzrrae+wJN72xdiMFIXnfmb2Ho7jJi0PHLzSiiprKVO7NbOftRyH7m6VJQ/J5bAI2bYaH9N7z59+Ep7FRZHn5JeUCHO29QiQb8hqxPtELSXbXPVmDjJELMjAfjEZJOTLz9/HfUiAGqofMKT41Ysm6CPsWhL9zSZKPlfBVH+2grKMuJJuGiNo14PuvYbwQ9TNuFyLYK8/CLyiyupqq+jobGayuICCv0PcnbZSIYN6sd/qS5nyYEHxGbmk1dUTll1/SvDw8Iy5ULMr9uzymQhE1df4npMEVXvyHBk9dXUiL5dmJ1K8BlrHCZ1oVeffvyPmiXLDgWSUCT6hfitTFZHTdoTvFwmo6+jiprhHvbeiSImJ1eUoZTiKvnwlRAWEZh6uMwSwZklJoefEl/15vDXl0YTsoYqKkuLSA44yQmz3mgN+h9+0jBm3p4gHse9aOPSqjohkNXUVZaSGxWA58Zx4vr4N12HT0J7jQc3nuWQV1hCUYW4Php/q7GwSkMwD4+twGrCHMy23uN2Wv0LhyerbzlWSZ4IlB4dYJ+pLsO+7SqCKQ2mr7/MxcQy8uX3dl+LkeqE3t7hwaa5TB4zC13Lk5x5kk5iXh6FpdXiOpLbqZH6LB8e7lzK3HHGmOwSiULlF35tiLZorBFtnJfB87OWrJnwLwYM6Ecfg11svJFEZp7wvaWiH9bW0VxfKfxkEUl3D3LIqDeqA3+k6xgbzI6GE54sbFUsvx4afh/Kl5VSk3mDs1YGLNKzxelmBpEiq32tWV8igs/aSiqKsinI8+XmViMMen9Lv196oLBgBy4ehaQV1wr/I3ZtLKQk4SRHjLSYMHISsxyvculxKpk5eRQUlVFeJ2z34qAfRNYkfG5lMaWFecQFnOLwkkFoD/ya/x48FWXrK9wJzm7pf68dT1yP9SX3uLVpJvO1tJhue4xD/okk5oq2Er6jWj6c3phF4fND7Fo4hTlzN7IroIrUV+PAz8AfmCAlI9fNlv3ze6GtOpxf+/TlF11T5h6KJLLwXd25iYKA/VyyVGbS2FH07i8yNe35zD4UQ1hJ6y6v0hDLwy1zWNTv/zJEbRJzj6fwpM3QtIGKiFOcsddjrL6IZK/EkNvOIaOm7LtcXKbLxO5f0V/TAP1j0TwtaN1IBTkPdnLcdh4LLI+xzzOVjJrWTX+Q5pCjXFg6nMGDh/D1sBVYHgsjo3XbqzSIzPahEFILE1tsD/ryLL+pDWchHHvYVS4uncDk2SITvJpARvOrkv1XoJY8Nxucp3xHn+GjGWrlxpXo1k1v0BhxTNS1F0ojBtJz7mG2BbwruiuiMuo6p0z00Z/rxEqPPFLb62njz3HDTgOF/kP4tp+xENsnxLZuoiGTosen2WG+CCPrnRx4lEN6WxduQw5FQVtwmD2RKQZbOBZcQe4n8vTNzfWUF5ZRVlRBw0tv+ukoj77MmcUD0BnwHwbPdmadr4zi1m2vURJCwMYJzBn2PwwcIwTtYh6xbV0jDSUUPNzGVotpjJm/hcOBuZS0VWxZMA/2GzOn788M6TeScU6iH6S0bnsVWRrJHnvZZbyYJesucCykiLZciKgJxU9Os3uBFhONnHC6J8Sj/ssOeV5QRuK1VazV+jcKCsMYvdaTK/J0rg3Kgk9ydH5vNAf1ZMSSI+x5Jr+a3qYxP5iIC2YYzpzDzLWu3Bcpbfu6YwM5d7exbfLPjBjYm+7623DyKHg58UxWHCWyUTvsjM0wdriCV6wInlu3/SFKQ4k5OIt5Wr34756TUTO+gmdGGyNEtbnk+u1g+wpjFq06xqVnuQg3+QbC5tWJhO5bwtLps5i63g+P1PLXEpvO5qPFtrm2nIQLluxZpsSMRXMYraJCn34i7Tc5g3tCSRvGFurXnMnj09vYPm8Ctqbj0dUaTG+RTertfsajNsYZ6kqec3fDLOb3+2+GqE5g9oFI7r015iGOWyca8dBilk0dyxiH21yLbf9gUUNpAtGHFmGp1YUfB2oyYN4pTgWLDEcIbXn8JU7ZCrFf4sBmzwwSP9kYlKhr3l0C9s1HZ+BgfvpWRPA2Z7iWI6PspfVFFlQULjIBW1YaLsR0tzceCe9R+tIYki4sY9GkaUy2OsedzCaq/zJ6K7KNskQe7JyD8fD/w0ClsUzc9JA7ya2bX6OSBDd71k/8D4rDFNBY6crpCFnLCMObNJc9J/KcBYba+sy0vcrtPIRd24O4UkuDeHZ6GTOHD6D3t8PRtTjO8eQGqpvKKHl2knO2C5ljvJtNtxPbDJJeINxR5RNu209l3pjpzD8QzP1PorYisq9J4tk1b3xcn5Fc0/iJZ9xmE+e9FUeNAYz6qQejTfdwMBwK3gpgqylMuMKx+ero/NANpWlr2BBYRtJbhREZbOET7q2fytypM5m2W2TJ7xz+KiDp5jo2ju3KcOHYf53hgsONTApeNXBjLtn393HQcpGwwV4O3s8is3VTWzQUhBC2byYGU2cx3sGzxQaftr0+NU3CvwZxd+si5vX8nmFDRmOwJxAvkQS8riHyNskkSrTXqlG9GPmLIhPXiKA7XaQJb137FRQ8OcJRIzV05zlh455NSTsTEjnVcSKrdFJHd3g/vuo7i5nOd3leKspTnUG822Y2LjbA0OksZ0JK2xT6j6ImlSJ/Z1bNUKHrvwcxQmsFG31SSXj1EqrJIfvxSQ4sm83C5dvZ6Z9D/rsuMVk9tcGHOGQxGc0pq3C5nUTWJwp+28PHi21NKQlnLdhuL9Jyl81Yzp6Cfs9BKOvasfl+GilvGltWgqzgNmd37GeVoRPHN8zEaHp/eqobMG3XHxBbWRnNGVc4vWwsk0YvwOy0cEJFrdvaQ10RdY92iwhZhR7dRIauYMnaa0EExt/DbZsRZiZ2rDwTRlxpU0vX/mTI4om5vR7LUQMZ+u2PKIvMy9mv5vfMuSqD1Gv22BsvRG/1BW7EFFP9vgI05VH1bB9bZ2swbspK1nuVkfz2DesvlDqqC+5x3XYq07p9i4KGASZn4njyViolGqA5gSfHlmE2VDjjweOYuTOAO7ltRejNlIdd5PIKbXQnWmBx4jlJ4uftt2EhmQ8Psmv6ENR/7UK/aXZYnQ0h9tlNPLcsZZHBKpyuRRFS9YEjNuYTd3EpK/XU0VhyiKPP8t4/p6FdlFNT4sN583U4Lz3L3dJaXt7O/MOIC7c5jOcXbDAaNJiBP2iit/YSN/Pl7vpNssgK3sOGsSoo/EsJ7YUHOJFUidj1dWQ5lIUdZNssdcZOsmHtnVJS3tk3ZVQ+P8nl5cNRG9aPr4ctZv4OP0LlM9paNpdSlXCNk1bzWLLQkS2emSS8XbDXEYJQfteZ1dMnoqq3iZ2iY2V80YFoBU0Fblyw1UP7mz4MG7GIFZfDCJXnK617vEB8IQvm4QkL5vUYxOBuM1i45x7+IpJ4K5hoFL8/uxQTTQ0mL7/Ayei2A9R3UhVGwjVbTDQU6PWfYWgb7mHfo1Se+Rzj8Mr5zLDczyHh94s/abuWCNNd5bjZJEZ/8w1DRo5n7oFnr2hAI1UhF7m6bj56RhvE9RhBxnsDCNGHCv3w2WLATPXxzN/sj1dmRxrhj/EHxLaY+LOmbLY3YuFeNw7aG2Ov8QMjlEUUfziU+yKLeI3KVCoebGLrtsMs33AVz92G2Or15hc1A6b+EbGtzaDCzxmHqSKrnurM9qBS0jsQsSETcViFL+6b5zOhWz8G9lRhhrk5S51smTV/BXaHfXic1/BGRPkpqCEv5AJH5g1hTO+v6KZrjP6RBCIK5dtKqIm+wmHjecxfvIWtgYVkffCmRy1Nhd64rpzIFJ1Z6O0L5XF2e++U/NkUU5Z0jkOGY1D9V3+Ux6xm84MsUt6yo3AhtQF4bJrHtC4DGDZoCTbCCYWLar59jeeRJIKZjZNV0Z6/gx33cjuYzTRTn3wXf8exzFDqRhfV6WguXIuj6VxWmdtgffipyM7akSHJ7+8+3ctRkzEiELXG1jWaRPnXL7Z+JKXUFHtwYoEtqw2Pcau4tu0h3o9CNGbhXe7tnIfOAAW69TfEbH8AYSKaeesaqI8ixWM1Zhoj6f7TdKbZ3cSvqObtwKdcOMGrKzAePQEdoyOcFpH4+5yyLNeXpwcNmDJyMN9/P5qJS49zXVwALUFKziOCjxizaIEVZnseEl3WRrnepLkMWeYVTphNZLyaqM/pBJ5/ugb79DTl0xhxmF2LtenzoxIK4zeyOyDl7SBGnkMWeXBnyyy0fh1BbwXhry6GIR91f715xf/Sb+DhMJMxyvOEv35AoGjMjuliOUVhF9g3RxWtrj+hqKPH7NUuGC9ahrGJM1vuJhP/yZ9xa6SxMoqAHfMxHvbf9BumxBCraxwPlfs1YfW6UAL3rGSpnjEWRx5zr+BDaaq46ppSib66ipVj1NAwPc7uJ+VvPFLWefxBsTVh4ypTjA8+wvfsZk6b9GXQcBHlml7hZJCIzlr3lVOfFUzkHnOcd51js3swj4+asmZyzz8sto2F4UQfXsAicSFrmZzmYmZVB+8XyDtIjjDAehw1ezOqbw8GDldCU385C3b6cDdJGOPFjp+c2vRAHm0ei4Haz/z3gOmoWglnlVlEfpYnd7eYsXjeBhxORxAvrqn2iH1zfSxP9ixgwRhdNFZc4UZ0ebt+96fTkExJoAtrpqnQ7RsdtBacxS27LRkTF1nuFc6smMCgLkoM1HZmX0ByG0IjVLr6KQ8OLmSRmnDWK65zMeIjxovKY8lwE8I6VZGevw6kz0httMYvwW6vN35ZbWQPbSLKknqDO/bT0VHRY+7uQPxEB/1jbqlMZLbenDG2x8n0FJ4lte+4X/kRNNcJR3+aKys1GTJkJN+P24Tz7cy2+1H5QyKPGDBNdSjfjzRn8f5nJFe8HenWpXgTuHEaU1RmMcXxFr7VsvcP5zfIH7nbiLXOcAb9zy+ozBJB0wORjWbHEndtHfZG81m83Y0bce0dsBS2b3iI98aZGChPZKLjPTxfG4v8whCJSfHtNazWG8o3/ScywuI6d94emxeIXhR7nPNWagwapErv6bvY55v1dtvKaigP2MGB+VqoaNticyOaBPnXL7a2m9qcIB64zGCRSjd6DRiEgvoUtOdsYb0QePl9+k8ttXJk9cXkuK1h28zu9ByoyHe6LmzyEu1Tm0CcxwbWLzJj0Wo3bifWtNPv15AVuJddImhQmr6GldcSKe2MgrfBHxbbDTaLMDsWROSTWwTumIn6kBF0U1/FmkuRZAtrvjBoFQWRtzlnacnmw77ciUsl4qwFq8b3+MNiW5XmLyI2XaaojWPymhvcLajtYAbzgsrgs1yzVkBT4Ve+/lmHccaHuRBf/gkzhjYoiyP35gqWTx3Gd9+rM3LsGvbcOsupU/ZYGZiy+vDDFqfeXmT1eUSfs2D5eCXUZ+/m8NPsNob+2kA+w7w4h+zMdFLT0klP7+gnjbSMLNJzSyiVz35sPWx7kRU+J/3cYhEkDOZfv4xF3fAAZx9GkZrx6jkyyEgKJu3mOlbPHMl3g8YwzPQMN8JbhgLeQFz5mTe4aT8eXZWxTHcO5E5bk2w+SBE1yec4aDwBte/+Q9+haqiJIObM89oOBDFizxI/HuyazQxVDSbauXE5QSaX4D9AJ4ptQwWF3hvZO78P/Yco8O2kddidCSJd2CLjFVukp2eS5neEs9airyn2p8f0DdjfyKSk5s3rWEZRyDnOmiujpTGXBbsDCG2QfaD9qimKucaJReqM7/k1/ccaMmvrbS4fdGHfyoXMtD3J6Wc5HXiMR/RImQhEDy4RQbkWSqLfnA8u7rQg+o8iywsn8pABJjrd+c+QCQw1O80FPxH4vXk9JEYQdXElDnq96DNC1Mv6OldD2xifbyoi/orIeicOR3XaBjbfS24jS24HVRkU37LDcbYCP3fpS5+B0zHa649PUUtI2Tk0i2s58hSXV+swtM8wfuw5j6VbD3PJ9wDOSxdhYXWQ488q+GBS+wpFIWc5YyH6o+Yilux/TKy8e7Ru60z+mNieEWJrNR/T06FE5iaSesuRZcqDGfjrJGa7eOArQo2W2LMumsS7B1llvo2d1+PJKE4j6aI51mN70P0PiW0zZQnuXFw6Gl31GczcfI/npXUf13DJHjzcOg7dUf3419ejGW90jGvZtbx8jr4zaMqnOuEEexePQ+mH/gweqMJYPW0mLVnGIhcvfOKrqexIZYSjTHVfhcPEEajq2LPxXtJ7J468JOsJ4VdccFy5DMMlZlgsXcrSdn8sWGq2hCWWdphvceVmaG6HJ0jUJt7F30WHqWq9+P5XRYaoTWOGoQkWlstenmfZMkuWmhthpq/JaIUe9FDXZ9KmAAKT27jKmoUbjhUOdbkWI8WxDPaEEPDmbY12UU9jmR/X7fSZ3vXfQmxVGGHrxvmI9ktty2Xc+JzgUyYYqaoweslJDgbV8scmxJZTW3qXsy1iexov0ec/1T3b5ppsok4tZc24nxkwcAA/K05AV38Jli02aLX5MrldhD3mTxVZ7a8MHdIf1WXH2Pe0nsq3vG4d2Q8PsW+uEqq65pidDCG1HdFYfc5zHm+fgZFGN3oqjGTwWH3G6c4R/Uxkbw+zSKvpYEgnyyXqvDXW45QZNWs7e+9nfLHP3FYm+3NnjTazR/3IzwNG0m/0TGYtNMNStPuyV68HM1OMZ2iiNaQLg9QmoL8nCN82bkbLGtMIOWaKubawwfy9HHqc/f6RhXchRJvgvewx1eLX736lj8i6lxx6REC7IvqPRXSomgc8OGbOzIFDGPCTCBi01JliOJOpyw+xxyPtvY+atkVF7E1cbTUYN3waszbcIbDx8zwO9sfFdvkcjE9HEVJWQ3XkeU7NH4Fmn4EoGe9nf2QzpXK/lH2Th6dtMHIQ0eqTShork8i4aIrlmD8qtuUURJziwKzRKKmKzOjgM1LaGMb6IM2ZpN7Zw/Y5GqgM6c2PXQagoe/AtofFnfwsVh2NFaKOmxdiNOxH+vfpRXeFsUxdc44LkTW0tdLke2kUGcG9TezQH4mKqgnLr0a03M/8IAXRJN07y/EDu9m0dQc7d+1iV7s/O9m1Yytbdx9mx/n7BCYUdbDjNlL0/CKnjQczZmgX+qrrMX3ZdtZt3cXO3btfnmf37n1sdbLGdNIQVPp8w5BxizE9lUzYy8e0XqGhjLrHezhgqMqI0fNZcjqaoI9xCJUim/NxYfP80Sj/2pVfBirRT38327wyOnirIo5oVzuWq6iiOH0rzt651HXUtq8hF/AHXDHfgMvSS9wXx/pDh3tJIw1VIdx1nsvCvl0ZOnQ02kZrWbH9hR127261ufzvPfbYGo5n7K/dGdJXBb2NblwTkd1bia383rn3JtaNVWX4+DXYXo2nrD2BhsiiCu/as2HeKPp2+4WefUagqO/MhhtxpLSnT79FNSnyWeyThopA1BbHW7EtqxD9oZinU6gmL+Iih2cpofvLLwzVnCUy+W04tbT/bna/vB62s9VlKSbjRjGqy88oai3E2jWJ4LcS20aaG4Lx3zIfg5HaqIis/mJo0UfUu5mGohBCDlqyfMIQ+vX4mb6DVBmz9hqno2tp6mDs037kJS0g2XcPmycOQqPPT/zUV4GR+sKGNxKJ+YgosyHFB3/niUwbrs146/NcK2ju3KSqlU8gtrNZcjKGZ3Knl/+AxzunoKfci57a1lhdyiSlup6ap8e46myKzemneMuHRcsTyDxvwrI/LLa5ZAfvwWWMOkOULDA6GUF+ZQfdTmMupc+PcXTNMmaMnYW+jgLqQ39gwGgD5uwJJzCz0wZIWmiuyyPy7FJW637NoCEjGDz/ELvv5VLxMV5AvljHgz0cWqCMsmhXw2PPeVj9JTqUVykiRX4hjemL6i9dUV4ixD6oiby3FLuJsmQvrlhoMKlnFxSn2eF4t5Q2n4aqK6H07ga2iqBjlJYxy67GEdrR0LW+mMz7pzhhNRVTw4nojtdkcO+h9Bo0F9P9vgSJaLr9Pj+F+DtOrBRiO0jHnlU3kqj9QDdtqiqiJDOOxLgYomNiiY195RP3jLCnJ9k2xwLLeZs59jSMp7Fxr+8TE01MfBJxmSUUV7X3miijNu8GZywmo/VVb4armLHyZnwbbSdq3vScBwdNMOzVj2H9Z7LkyH0eisD09TaR97wkom+uYflIUffx63FwT+HlOhfvo1k4lMijHDQfy4Au/emvuJBlZ4JagqaP689NZHmKPjF5AKqKJlhfCSdGfPtujRBnaa6goiCDNNGecdExxLzavu/9iH2FzWKik0nJFn3xg8PmryBLI/X+VtaoKzLsKwUR7IhMNLZaeLo3KaUy8wqnTMai/e0AVCY6sPVRFqmtW3+nlub6e9xeo8/4AWNRtryCW1THQkU5TeURRLptx37OfAwnqDN9TB8GDB1Cj8nOrL6SQqGoY2f6mcKQS5wzHcjYIT/QfbQZC/cFi0D7o6IuyLjPsx36zFRWRdPsMMcTmoUX6nw+idgaHY/mqbw3NCWQe2c11hOG80uPaUxdfR2f7BieXD3AXnNHDj5KJ1auXaXxpJ8RTvAPi20OWc93s1FXncFKS1l8KrKDYltGSawrF2wXYGG5E8ejd7gqsszlE7rz8yBtFAxPcioo9+OGXNpJc102YSfNsVH7GgVFXaZsesCd9I/stkJsax7u5fBCudjOZuHRZzwUkW5nXgR/DLmriybksh1mgwYw5IdRTF59kWv58pz/TcopiTvF7qmqqPzPMLQWCCcUV9n2mqtCbEu817NlhqIQWxMsr8UR1pHrUlZHdfBpzjiZYGDiyN4bRzl3aDnzBvVj8E/9GWt1mBNRdOA5xVQSPNdhK8R2oPZaVrkmflBsq6I98dtvge1SI+YvMsbYxASTlo8ppqZGLF40gwmqamiojmHKwsUYyr9/uY/Yf9F8jJbZsfRgAHeFs24XjZlUhexl81wN+v1HkZHjndn7LFfkFW8iKl7uye2N+uj0HM4AJSvWXg9vmWX9unjJjZNI1I3VWCqKuo/fIDLK1PaJbWM+smAReC7R4peeagzW28mRx9ltLL/aXprJ9nJm2+T+qI4wxvpymOh5b5b3VUSHqQsjzG03m42NMV1ohNHL9v3QZzGLjUxYNF9k5sf8uF/S3P4h66ogoi4uY95IBbp/P47pq67iJdKut7tvHlUR+9g8W10EI+poLjjI2bjCNm4nyMXWl1urZzCu/ziUl1/FPbqjeVwuCe7O7F62gIV2Zzl9dD+XHMeJdhzCf3rOYc46Lx5UNHT49lFHKHh+npOG8kVWujJi3g42B9ST/7F5UGYgz3fOZJayChqmhzkW10xbMz8+NZ9GbI9F8LRFBCuoTXLluPkY1LoNZfR0a/bdPsumXYexWnEev9TyF52uOJ7U059CbLNfiK2OOoNaxbag3WLbTEXCTe5sXYTRvFWsPh1NRF4pxcLZHDJRoe+PCvRWssTBNarl+czOGSWpp6EmCO+N85jbrTsjRgrRvxzLs4/ttUJsax/u48grYvvgixZb4UJKfPDZPZ/RfYbRvbcBS3aLrPGtDElQK+zgsQZjtZF0/24yU1dew6tABBetm19DLrZe69msJxdbUyyvx3dAbCtoTvXixjr54yW2rLwaSVRpNgVBx9g3rR8avb7j1+lrWHY9j6x2P+rwutjaXk/4oNjWZYYR5XWC8ycOsf/QUY4e/e1zjGPH9nFwjy0m46czY8JirHcfYI/8+5f7iM+h/Rw6eYET3jGEZ7XzplZ5DNmuy1k+eQjf9BqPkvEZ3OKK3naijYU0BYsymKjSs686Pafv4kBARhuT8eQ9L0GIrR3LRvwutm29YeYtKtMo8liLw4wh/DhkIspWrnjG/pGbg6+LrdUl0b4t374LYaDGVFKfeXBTtOexg4c4/Gr7vvdzmMPCZocOXOK6bxQxop+095KWpbkTsGUy2iOG8tUQYxbuDiS+po0lFSvCyLhmyZKxw/iq3wx0V7sTmFUpD4PeoKZFbN3lYtvvhdje6ojYNhRT9OQg+6wMmGe2Q9g5h+ycBBLd7VisPoyeXw1E12gXx2LrKWiv6+0Q8s5SQJLvDjZoDkL5p+GMX3me8xkiVfpYxybENniXEFsVFdRNDomyf/FiW0KCEFtnq9ksPi7EtvVNCk0VQiz2zMdE+VcUR2oy33Qh02wPYHpQRL7FreNRQmxTPonYFpIbeojtkzVQUDbF8FiocIDtCXeaaSp62pI5rJi3gGX7A7mbJv9elK/an1suc5nUtQeD+oxjxnZv3POb3xONiw2N8rWWC8jPL6RIiH3LeqHtQVZMbfZFjpoJx/aVAoqjHdkUIC7w1s0dRoht+f0d7JujJMR2IaZnQ1qE+4N9srqI0nQRbIQG8zToGc+fP+/Y51kQQcFhPIvOJLO4pv1DZs21NIaf5sJKLfoMUuS70auxvxxJXlsFzvHj+b65TFAexn+GGWO0+xFx77o/X19Kpd8WdhqMQlHLEPOLsQS3a3iinvqMAJ4eXIrJPBtMd/rxVPgl+Vmakr257zyaacrd+dcwUY513jzLEeV/8cMPkETsLXtWCLEdOmED9rfSPyi276eaxsp7nBdZ93rzs/iIPvcpJvs0ZTwiaNdk5mp05Wul+YzZ9ICgjLdlQlaZQ8GNlThN68lPw8cxdMUtXCPaKoHckOnE3XJklboqQ8Y7suZGUhv3dd+mOS+C8AOzMdb8nl/UZjFtexBP0tsdMbVBAxke69g0eRCqqsuwE0H025n4n43IgJ8e4fzSwYxUGMg3k5yxuZZKWRurTzSl+fNsx0Smq/3K/2hYYHAomqSitnpjvRDbB3itm83UIWNQXnqR6xHtvNHZVEZxxHUurJ6DoZkTDjeSSW8ZJKkmP/w8B2eNRKvr/zBo0lKWXc4m5n3P0DQ30Fglkpn8PPKKqzrwbllxodQHE3Tekrn9htHvpxnM2+qNv7ieP3bEsTndn8dbpzFjpAY6S09yLr35083mfw8fLbbUl5F4zlSIrQFGxyN59ttNhYYiSu6sY9u8EfTr9St9+w9Cw2wfG32rKfgtwC5LIO2sSesEqTlM2x3MkzZee9RYHoKv82wWtIqtvEP5vzZnvY6SmCucXqyFpvo8DHY9IKr8w1ZsKk0k+vwq7M0WY+gistvY8leWNswl6vJa1mj+xHBR9gGG+9jkV9TGLMtWmmppSH/E46t72bdPZBd3kohq78zXhkyqHm7FabYKP3fTRWX+SS5HFX3Uo0stNFSR7emI85QRqGqsYK1HLIntcGxkPCTknCO2Sxcza+5CFhkZYdTuzyKMDOcyd/FyDJ2ucDWoAzMdG6so8t7I7rm96aOgTM8FR9gX0NaMJ1G1qEu426qgoTiQrpPXY++aTum7TN0kstPwY5w0V2eExjTmHw7j0QdvyoiGqgom9OJ6bA0WY7bFnZspr2TOZZHkuFqxdNJwvv9WCZVpWzgamt/GvbQ3EceVCeG4uBwzVVVU5+1nR2BZ+wOyNhHZSpUfF0yd2GB+ruW51Y8fXv2ditjbuForMmnIt/SaYI3J+XQS2vBCjUVJBO+dibHyv+inITKE/dE8eudry8rJ8N/D9hkqKI21xvJcJLntqHt1agC3V2mjN/BfDJlkjpVrIeIy/XhkJcRfWcXqCSNQmbKeLT7JnyWb6RjVpN/ewJapXRgxdBBDTU6y52Etb74hT055+HWuLB3EmKE/MmCmC05eVeS1eeHJkDXG8XT/YhZraKBqdISTz/LaFSQ2xN3Ge7cp8xbZserUI6JEhv5bUeoynxLoMoEFyt/xw/BpqK26jVfiu0ceZGVCqB+c59zBXew87Yd3dB0V7RJcEWBli2NvnoHKAEW6jljBqrPhLZPbPpaaBA887HWYqDCBaWtc8RTXTztvtPwhPl5sRfGSL5ix1lyI4fEYIl8GSyISzrnK9Q16qP34K93+o8Q0x8vcED70ZYUasii4Ys6Kcb/QTYik3sEYwtsKthpjefTqiwhOpPL0Da9SmeKPm502E9VElOd0h8CSD2QbZdGEX9+K/aLFGK87w+XEqrfWEW2KvYLHKmXUFfry9WATjHY9J/YdotVcU0jarTVsnjeAUcrjUF9wmAN+6S3PsX1Q5+pTKLxqwdLx/fh2xBwmuzwi9I/cqa8vJuGaFavGDUN1nDxLTnnH67PeoCSFzOceuF27yKmz57lw8SIX2/25wMXzZzl70ZXzd0IITS9r4/7SuygnVYjQWq2vGDRqNNobA/F4x0LDFQ/2c3h2d5SH9kVx6VlORLRuaAuZ6GkZ17i2ZgyaquOYteUJvh96BqoikhDhjDdYCKdk78718LI3ZijWIMty49SyiWh89wNDlOew+Hw0IR9UOdG5qh/x5NBC5qiqoG12nuPBTbS8VOqj6YznbJsoizjFIb0haHbriZrRHvaGyi3UBsUPuLViDFO7f4viRCscfcrf4/yaKHh2jhPGo9AcbYjRwcfENMs+kFHKqEy6zNGZKmh+2wdNw90cFmnoH9FaZKmEnFiKqZYKI+fu4vCjrA70089FDlFnrbAe2oXhg7XQ23Yf7zYjglryH4qgbVxvVHv2R9fqHOdTWmSpbZpKiTlvhc344ajpb2HX/fQPzKYXopp6j7sbl7Ni/nKszjzGP++NFKCpgOr7TmyaN5xuPykyYIwjO/1z3xnAVES7cmudJnqjFRiobY3F3sc8LxaJSuv29xJ1kkuWSgwcpkyv2Yc4/PAP9QRKI69wyUoFXUU9DDZ581CePLdu60w6KLYymkrSyYwMxM/jDDsttJkwWhllo61sPX2bgOAEkkrkb6VJJOzsUpYM6ku/QSYsPx9Okvi2qTSZ5IhH+Lqe5LT1WCYP/ZZv+msyasl+dp+/y8PwROJya8lLiyPp+V183PezcZ46o3/633TvJzqK+RE2X/AnMCiG+MLalqGz+rxwnu0UjaY+ljGW8jVca16J8oVHay6lNDOK0Pt++Hm6cXWPFZYTh9J74HhG25zjSnwRxa1phvz1gWWpIURe28BOIyUG/dqN/++/FVCcZIv9NS9uPIgiMq2EqlfestJcU0TKHSf2LR/JaLXRDBpsitVBf0LEtrZEX1ZbRmlqMOFP7+F7+QCHTVXRHvAtXw3URc3sMEcvBxIck0m2iFI76gxkDWmEHhNZ2RgRKBge4LiIYP9Yt/zUiCi7qYyCpHDC7/twz+MUO011GNfjf9Gj72BUTIW9LwbxNCKN3OpSivKTiHvkx8N7rhxznIfB4H/Ru9uPDJqxGutjj/B+FE9KYVUb98PEpVPhh+/OWcxS1mHKGk9c41937811lZSmPCfysRc+3le4sd8KU91eDB2iweTVN7geJs7/mwFEVlSSHsJj951smKGE6vf/m59+HcjgWc44HPbk/pNQorJq3pFpiys5x5N7m/SZoDyGKQ53uJnW8u0f4FOJbRVVhUnEPArk4V0RMG03ZO7AHvT+dw+GTVwqnOx9rj9LJCm/kMrKTFLDgnhy9zpuZ21YNnoQA//re/qO0mfhrhucDIwkNEU+AvS2jFbF3eHOGh3Gq8xCf9NdHol2fbupaqgtTSEu6JEoiwjg9hszb3Bfev6vfiiMW47tFW9cQ4R/yKn6iMdMRGs3h7Qs+zdPWRvNZRe50mZ0/7kRFWkuIj8pgpB73ty/u5utJjpoffsdPbqNRGfpLrZ4POd+VAb5lYWU5ScS/SCABz7HObp+FtN/7cqvX/dBUX8Vdpce4R6cRHJB9dt9q7mBPC9nts5UQmXsWhzuvHj5+u800liXJ/z6M4J8vPB1O8UZR31mDB4sBG4JJkcfEphX8ft1VpFNfsxt7p9YxpKxQ+j6X13o1k2T8TYH2H7rIfefJpJa+vp8irIYN7y2T8BQT4l+facxcd5BLqeK66p1+2vImqkrEMcIDyDQ152bmw0x1/yJrr/2o/sEW1bs9uDR0ygSRF07/tRGE3lBxziySAl1XWNMjz0jUTjqP3Y9to+Oia2sidroW3jtNsZo9hg01EahrKTESFVNNMZNwnD9WS5GyielN1H0YBf7l45jitUhDjwpp0kmYqnYq1zesYzZ+lOZPFpEraMUGD5SDSXNSUycOp1lW89zLLCAx27Huew0jUVzJqGlqYrS8GEojlRq2U933EJM1hzmtEgB5cmKrDKZwhs2LB87EfW5+zkSX/HK6iiiMzfGEHt3P5uWzGXu+DFM0FZDbeQwFIaPYug0W8yPBRFR+CJqay7LJN51HdtMdBmnroTiiBEoDFNkpIoGGtNE5mm+l903o8hqeOVqlzXQUBRFSthZTu5Yg6HaUlZtFp1BbGprOLipMJHYG+vZZmvATL3JTNZUainPMGUNlHVnojfDknWHvbiXJ6L71t+0jyaaKp/i4zwTA50pTNogxCxZZGOtW78MmmmqS+D5xW1sX6KP4ezJ6Ap7KA0fiuKoUSiNnYLODDtsd7oRmBtH2NOLHF8+H4s5Uxk/bjSqiqIfKI5gpJbIWKdasMjmFNdCM9uYti9qLUsg4tIKbHQ00DI5ziHRB1+lUQSNsdcd2W09Cf3p4xkryqEi7DB08EjUJ5mx+mIoT37zx03RRLlvY93cCUxUFucX/XG44kgUhZBrizIbrdzEXt884tpKF0T/kEWf4Yr1ZNQ1jDA9+ZxgoTR/zC5ysfXi9OK1OJqc5M5Hi20WmcGXOGJpgoXeBPQma4i+qMgI0eeVNbTQMTBDf805Lj0NJTPDmxtbVrNSbwqz9bQYrTqKEUOHM0pFHa3pc5louYfN18JJr347xJTlPSHmyGLmqOkxzuoSN4pkbUymyqMg9jonVi9jqd4kZk4djbrSSIYPUURFfTTj5y5i5rrzHL+fRU27pjO/SrVIiz25tmoq05X1mbtTCFhmhxW7ExAdoSGcp5d24DxnNkb6Yxivo8IoheGinwsxGDuJMUaOIgv05Gl6KIlPz3HAXATTeuOZMlEdlRHCVgojURmti87cZRg4XeZKm7dxmmiOOMVlyyloqllgdiaYUNGEv7eAEMbSx3jvsWeN8EmzJuswZrTwtwpDGDxiAhpzd7LPN+H3WyYp93h8ZClms7RRGTVC9BdR3hHi+tWZiNbkZZjZnsc1Nv+1Vaqaa3IpTfbE79Z2bKabsUhvJ+fl70du3f4aTfUUP7uA67ZFGMsXrxgzGl0lBUaMFH1OS2jABEMsVu7j7LNc0jpsxkKSvFzYMFUN9XlbcfHOofYzOckOZrbNNBbEk/T0Fu6ul7h07QY33dxxuy7+ffkSbvfDiRQtLC98U3E8yeH3RFSWQpLcackX/C+MIfqxJ9ddXbl23Q33Wx543JIfyxXXa1fwfCQivPRqMuNFpuB/Gfebrly5eQu323e4fVu+33WuXb7J7XvPCcutfpG1yRftjjzIjnm6aOsuZ61HHrEvU1t5jyqkMDmIB7fEOS6cF+W8yjXXm9xyF2XwuI93cCZ51S/iGlldOUWx/jzyvCbK5y7KdxvPO+Jvt2tcFXW94vGUp6KDVLw1nVJYXBZLot8R7AwccdzlQ6TYpa3Mtrm6mMLYAB75iPOLel93deeWOI+Hh6ifaMsbrl4EPE8iVShtm4nSOymlIUmI05IxTBxjjMWFNKLafGHon4mM5qYiciIf8ejWVdxcRbsK+9681WpfuU1cffB5HE96ZRF5WSJb8rrBHderXL3hhqu72M/DQ9hOZJ6u4u+7YcTklr/jfks1eff3c2C+KhpT17L6esJrotxcUya6oz9PvS9x9colLlwWNr8pomjRN9zcRLYancPLuUGyAvLjH3H/5nVhn5vc9PBsKe8tUf7rV0Q/vfuApymVFLUVXTVXkuftyKb5GijNcGaLb+onuFcofxGBJycN7VhrdByPj34RQQXlOVEEe93mzpUruN68wQ3RF2953Oa2sMUNdw9c70WIrD2X8rIk4h76clfsd0N+vYr93OX73RLt4ebGVc+nPIjJo+zVQPQ36pMo8NuA7fjR6OhvYtezenLe6tyVVAv/EOrrKcpylRs3RFlui7LcuSXKIrJpt1u4BkQQmlZBG8nz+2kooCH0ENvmjEdDdwWrPXJo97LKnYrwO015ZEU95r5oU/drV7kufMBN0cdve8j9jrgebvnj+TSJrLJcirMieCa+97h6Vdjqpmgf+X6iHwpbXXf35IZ/FNHZon1aj/47wg+U+RG4eyEzlCcy0+kO7jmiWV66B5Ew1GYKv+7HvauXhI+9KHy7sLGbsIHbba7ffsrz5KLfA6TSVBGkeeMhtsuvy9t3hB/3cBM2u86Vy554+EQQW1jVxjyCEupzbnNijRPmi47gliCy9dYtryGSuprsSGIfCd/odp2r1+XXpNxHiv52W/hI4Zs9fIIIz66ktEMuTnSc6lCCjpiyRFOHKatcuRDb0fHDj+cP3LP9UhBxXNkDvDZMY67I6GZsf8a9Tl6Iok3KnhDvZs8ym0NsvSoc++fWuVrhxL0cWDF1LGPn7+BEaDUf+8z334W6jLv4b9djmuZcFmzy4alwsJ+3Z4iLuz6RR7vmsWS8DhMcb3EjoeKVjOJjqaC2LJArdtvYvuYK/mV1H7gH92cjMvG0G5y30GLK+EUsPp36/pmrnxhZeTyZF8wwnTQFDWOR4SVUt/E86t+dTJLvrGfdZCXGGO5la2B1ux9H+mQ0l9EQIQJgZyfMNvoRlNXGkHen0oQsRWT/q6cxRmsR1idCCPuMF87fQGwFslKy5NP6jcajZXyAIw9yPuPkB6GqTbXkBB7ngvMCLPd4cCW8/g8OE3YUGY1pD3iwbR76M8yYL1/svaLpEzj1vzhNyeT4bcNh6iT0Fu/nYFjTZw6CyqjNuMxRs6nMnGyNvXsWMR+1NNib1FFfk0yQ21283J4RX93QxtDhl4RMJPgpxJ6xwGrOVMbaXsYj7nO9kaqZykRv3NeMR9/AHNMT4SSWf+J3U/8laKY6wQOv9VOZom/O4kNBpFW3eK/Pg6yB2qxwnhwyZu26jWy4nUtW+We2QkMJOe7rWG+oh47ZMU4+z+VDr6P+lPw9xFbQWOTLvT2LMBhjwNJdgTwp+UwdqVn02Fw/bu21x8R8AwfuJZD2wRmqn5osMrz2snm6HrOtTnEgrLyNe2L/ROpoyA5quY89R38xc/aFElr6GcOwomhiLpthOHc++vY3CcwUovhJOmUzzc21lBeVUFxUQU3Th2b3fgHIaqhLu8KFtTOZNt4Up0sJRLc9/v9pqU0gxXUTVhP1mb3mDJcyal55zO8fRm0qefc3Yz9rInoLd3I2vInCz9UW1bGk3zvEWnNrbPa48bCwifrPmtZW0ZTjxw2bBSycbo3V5SRCyj7v0N/fRmzla+wWPj/DeQs95s11Zs3lWOKrmjs/wxVOhIJHBN6+waFLIUTlf+YcQ2T1+WHHOWe3gDkznXG5mkDcRz+o+zekoYrikKPsXanP9Pl2bLkdS+LneHG4yORSPA+wdYk476oD7Hia89YjZv8s5FFGFqmeO9i3YDoGxkfY4ZNKrvy25YsdPjGisZsKyAjYz8ml85k5by9bPVJfTKp8scM/EOEYykJ4sscMG72FLNhwD/eE0s8TmNckkhPixvEzPtwKyvnMIzGNVOc+JPjUciz1TTB2uINvpuyzP6nxNxJbQXUaRX772WFhidnas9xMrqC4XWvD/UFkTTQ1NdEgzvVZL2RZI82VUTw5asM602WsOhnCo6x/tEdvG1ku8Xc2scdqPmZbbnM9rLplckjn2aqBxiR3fPbYYmq6nS1uscQJs/xznfwrlESQdH0Ta41WYL3zNgFFjYiY+NMjguCmkkfc3W+LnbEdm65EE/rlrWLxJ1CPLNkDr20rMTVyZrtHFHFtTWr75DQja26kobG5fct1fkqaisl8eIIT1gtY5niGk0EVndPnPsDfS2zl0WyViJ7vu3H7mju3Q7PJLv8bzxKqL29ZyeWh+zWuuj8iLKf2nztE9gEay+JJCXLnxmVf7gZlkSOC/M6ZLCV3KmXkh/sQcN2V6wHJxBQJ8W3dKlFPU2ECMV5XuXHTB5+4Yko6+m7adiCrK6Mi8R4B7te55hlGXH79x6/M9nejuZzyuIc8cr3ENd9QgrOreWXpgL8XMtG3SpJIfnQL18u38Q3NJO9Pmon+NxPbVprKqCrIIDmzhNKqv7Gba6iioSiDzOwicj7JxJu/O7WUZ2SSnVVEUX1nDV/KkMmqKMnOIiujiM846favRX0hJbmZpGSXU9XWeoR/EFl9DdW5KWTnFFDwRTzm86Uh/GJFFpmZuWSKBvpbi21FHsXiekwrqKONZaY/G39PsZWQkJCQkPiCkMRWQkJCQkKik5HEVkJCQkJCopORxFZCQkJCQqKTkcRW4p+H7DM/oiXxBn/P1pf6lMT7kMRW4h9ENaVpaWRnFlDSGVOR6wopz0onKbeONl5+IyForCwiPzGN3OK2Fqr/9DRXl1JZlE9eSTWVnTYVVSbqlUd2Ujr5ZfXSY14SbSKJrcSfiNz5VVKem0D0g0Ae+Adw/9EjHj16yOPAAAID7nHv/hPuhySTXlpMRWUGyc+f8PieHwEPHvBQ7Pv4wX0eiP387gfi9ySG6IxSqtvwqQ3FMSQ8cOXKBR/uhuRSUF1FWXoY0UG++Pn743v/IYEPH/PkkTiu/Fj+IYQm5FH86ovOG+uoyIwgNtifQHH++/5++Pl44+XzAL+gRFLSokkJ9eLGpRvcfpBIWsfekfjnIWuiOjeO5BA/HgQGirYVNnj8UNjhPvfvB3DP9wGPnsWSWFRLUUkuWZH3CXroj1/gQx48lu8bSKCw1z3fQO4/CCEqo5hiEcy8bgYhdumibW9d4+K1IELSKt5+hWRjDXU50cSHiGP5+eHjL9q4xSaBPLrvL757TnBCIYUNDdSXyd+r/ZiHogyBgfcJ9PfF964Xd3398A9NJLagkTpRhubMIKL9b3A1MJnwXHmJhBTW55AVE0KQ6Ef+fv4tfemRvB4PRT3EeR4ExxOTU/9KwCQOVJdHXmIYz8W5Hom63hfn8/H25K5/IE/js0lKjCPS4zI3r4tyRxd9Ye+RlvgSkMRW4k9ELmMiE3xwin2LF7B4kg7jx6mjrjkaNc2xTJo6Ff1FVixyusytmDBS0u9wce1ylk8ay9SJo9EcrYmqui7jJkxCf8FiZlkfZN/tGHLfXKKmOYuYW5vYvswQk63yF8k3Ul+eSfqtjexfOYMZepPR1tZEU0MNDU0tNHRnMHGGE86nHxJW3/TyVYeymmJSvTex20KDcRqqqKiNZrT2GHSnLGH2yrNcDYshMU4IusM8LGx2sN0nj8K/wjOeTXUtL9K46KTHkrmT0NXVQVNVXbSvDmP0ZjFlxhKWrj7C2dACQoXQ+uxagO2SyYwbP5bR6hqi3UajM3k6k2YsYuGS9ez2CCe87tXnmIXwFT3hnnyZQAtbbM/FEprXxosyqkRw47+fk04L0Bc20dESNtZQR0NuF61xjJm2GoczwTwrr6Qs8RZ3Ni9k1jgNlJVVRZ/RRmfsGCbMmMXcDWc5ElRDsWh7WeQ5PPevYOnhB7jGyPuFyKdLA7h70ImVM6ZjMFEbXW0N1NU0xHlGoyvqMcfxBAcCSsl5mXqLypQ85tGJVVhN1EBbRdheQxst3TFMnrOYlSee4x+WQeqdXWw2t8TY4QpeGbXS+uQSryGJrcSfiNz5lVEsMswg13NCpPRZOPonvu3ah3+PWIChwyGuunnh5h9FfGEepWWJRN4T2cTO5djrD6JXj278r76TGWu+jZNX3bnm/ZwgkflUvurFG6qoCD3Jfrt5TFnkxBbPBJLlKVV9OeXxgQT5XOXMPnssJ/ZiRLf/zX/3VKTHlLU47PXkgXCgeUK4X4pGS2brwY0N45g2sBsDNecxW5Tx4MVbXPcJJ6aglPKKKJJurWXNXH3mmB/lcmgteV/6uGJzExXpIUQGHOPaARPmaQ6i2//blZ69JzHb+RB7rwph8w0mIrea3Pw0kp9cweeaA6sM1FD49090/UaVsRYubBI2cL0VwNMEkQXKs8rWw1McR8ItBywN5zNr9SmuxlZQ3NZyTvWV1KQGEep/k4uHN2M/czBqvf6L/+4myqO7lBU73AgMzyG7rp660lRir69j7bQe9Oo1lMGTbVm99zRnrl7D9X4EwVkN1Ih2b3x+mBtbFzNvhy8XwuWGEKFTrajDc398Lh/i4gYDZqn0pcv/+Z5uPVUZv2InO3xDeZYmxPLlO3dbM1v/PRxZoMzAPkoMmrKSVfvOcc7VnbuhuaQX1lCd9gRPl8UsmmOE0eFHPMj+HG9akPirIImtxBdCHWV3Hdg+uxu/DtOg15LznA5+6w3jL4i/iPuq4SiPGMT3U7fj6FH0jhdO1NKYFYS/iyEL5i5jzpEwgtt6609JOGF7prNIowtfDZiEgslV7iS2dUexicZcX27vNsd0nimrjwVwP6d100vE8StDxDkXYDLBgAV7QvDNrv2LTJ4phqj9bF2oTs+vlRg5fhvHIorfHu6V16bcG/cN+qh2VaDvMBuc3ON5qylag6nCB6c4YTadCaZ7cbyb3b53ydakkXl+Mdbje/CfX7UZbHCES6IsLwOf5kIy7h1mp+kUZi3dymbPVNLbMG190HFu7bJg8V5/rkS82Z+E4mdc5tSyCah+9zNDRs5gyZkInrSpkaUU3j/GWRtDZi7bywaPZNJ/T91bkVEZcZijtlPQmW7PJveElmVBJSTkSGIr8UUgq84j8vhiVmj+N/1H6qBhf5ebca0bX0NGrt8Wdht8z0iFQQw3O8ehoMa2xbYxkSyfraydoscM48MciaynuC3Vq0mn1MuRNbOG80OXUQzWdGS7XwrprZtf0Eh9QThBRyxZaWqO8R5/HqRVvTJU+ir1lATsZr/ZVLTnbGO7TwpFb42ZfoFUJVBx2warqUP5qud4lI3OcjO+7O3h3uYyCDvKATNNuvZVo/f0XRy8n9XGy8ibkJUG4L/bggXaC1iyO5C77X0ZQFMhTc/3s9N4NL1+GMTAEebYXY8iWr5NVkVd+GnO2psxZ9FWdnjFk/iO0YP6Z+8TW0FNMP7bF2I06BsGDlNBc5WryIDf6E2yUuoSrnFBnG/RAic2eSQS8a7X1jRHEnzeiqU6Y5lj78qVxKbOf/OYxF8CSWwlvgCaqC1+jue6Gczt+y+GqE7BYH8Y/m+nSsLx5RB2wQYbte8YMVSVieu9uZoscpQ2RLQu1QvfLdOZrLOABdt8eSbUoE1xbCqhMe08R5ZNQvHr7gwaPJElRx4TIIThpdAUhhPj6siKRUYYrruAe3J1mxOxXpLnzb2tBkzVnMbi7X48yJfL9ZdNc84zYg7OYoHWr/x7+Gy0He/ySP6G8Tepyqbo1hqcZvTjp2G6DF92mWshQoDfpLGO4ofb2L1kDJqTHNnknUJ266YPI1LCsvvc3rqA6b26MLi/OuPW3+FWcpGw611ur1vC4nm22F2KJaS0+Z0jBx8SW1ljIWnXVuMypSv9Bw+l+yQX1t9M5veYoIbqDF/uOBuxdKENK0+GEVL4PgGtI+/JYfYvGInOzDXY3kgm968QaEl0OpLYSnwBVFKRdYMz5hMZ85/uKI42w+5WKpFv+XkhlY3B+O1ewvwevVAYOIslx4N4UNGWkFWRG7CX/XNV0Jphj8PNJPkg6TuoR1YXgs82Ixb2+YrBg4agYnuNY+G/SXMxOT4H2LN4BnpWR9jzOOfDj600JBB3fRUrdFUYY3KMvc9qWmbHfsnUJPri7aCBnuK3dNM1Y/7xeGKEsLxJc0ky0ScXYqn9NX1UJjF5yxP8Ut60QDPN9WmEHRQiNV4bneXnuR5T2sEsL4/U6064jOvG0CED6WPgwuqdJ3HbbsGKxTYs2+XPY2HU943UfjCzbaqnJvQIF21UUOg/mG/7L8B4zz1CRLVbBLwkmIgLKzHVN8LE5TaBuS03Ct5LrQgG/DdNZoLOLPScPXlU+Rneqy3xxSOJrcSfjyyL0rD9bJmlyaB/K6ExbRcnYkvauLcnz3Y8uLpWD43vFBiiaMvGO7GkiS2vZzYilWiKJfT8cqy1NBhndpLjTz8wN7S5lCRXezZPFlnU4IF8P3Ur9h451DZVUpPjzjWnZRjOWs9mt3ii25WiVpAbdJi9czVQ1VuN5dUUSt5xC/rLoIn80EucXDAM3d7fM2LOBpwDGlpe7v4mTUUi4HGexNyB/2KY7kKWXskk9C1jVVNX7Inryonoa85izo6nBGV1NLcXIhV+Dle70aiPGMTPo8ajOnYGi2YsxO6gDx4pzW2PVLzCB8VWHqYV+REogoLJgwbS83tlptie50p2M5V1ZeR672Cf5WwMHC5w8knx20PqbVEaTsZ5S4y0x6JlfIizSQ1t376Q+Echia3En09FFAXuNphPGM7XP09E2/Qynplt5Y7Co0ccZrexJj/31GTgzH2cDcp6+WjO7whRLvTGa9N0pinrMNXem5vxH/J2TdQFH+eajRLDhwzmq77GWOzz4nnmfW4fXI7NfPE5GsrT3HfcH34LGaVxN7hspYm2zgLm7XpEbPWXnNpmk+i3DQe1oSh+N4Ax5oc4GS+f3vQmNVRlXuecoTa6X/dBdeo6tj4rJvXNqjXlUhW+n+1zldHUNmHZuQxi3z208G6qHhN8binzRg2hT9fu9NOYycy1rtyKrKC8Hcr3YbEV/aIpnTjPzazS6I/iT11RNNyO0+1Eou6d4JyDIbNMN7PXP4Wsd92nfZO6FEp91mM3aRRqeva4BFSTLr3m7x+PJLYSUJxA2iNXLp89ycEjxzh+4gQn2v05zoljRzhy8gLHbgbxLLWjQ4Uit8gMJHzfdGaO7se/e6iiMN6ClVsPcOLkyZfnOSn/99HdnLSfx2ytAXQZORn11e7cjWtDlGXiu+SLXLbRQUVVZFbbgvDNat32PkSG8+SoEVOGKdD9O00mzDLEZos5C5dYsdzlFvcym0S+1n6qU+7huU6HyUqTmG7nhn9lwxc6nChUq/oZwResmTNkCP2+6YvyhEUYbz3KXtHuJ1tsILeF+PfpfezbbsIiNUUG/jCGMUtOcDmt7O1FHITgVAnBsZ06HIUJK1nrXv7ikasOk0/WkwNs0FVA6buv6DXWmDknU4gpad38AT4stnLqKA67wrkliowb/CM9dWYxzmQddovms3SZI3bXookt70BW3pxDRfAets4ehcYYC5ZfziGuXVOwJf7OSGIrARmPCL0gnIulCXMWLGKJsTHG7f4swXjRAhaYWGPkfJXrwTltzEp9HzLKI29yfeUoJo7sxi+D1VEZLwR14WIWm5i8PI+JiRlGC2YxQ2cIiv26MEBnPvP2hxOU1UbG2lhBU+hRTphqMkJjFguORPCoXVlVKkn3duA4RhHl7j3p3X8AI8ZMRd/FnavhtR0WyvrMJzzcMY2ZiqMZY3qSK/m1bWSKXwJCSNJu4bNlNpoKQ/i5z3BUxk7DYNESFhubYNJiA7ktTDBdNBODCaMYPnQAPwyfx/R1HjzJr3l7eLU8liLXlZiNG8mwGetEdldDxscMo9ckE3fHBftxCozs9j3d1OcxectDHma2zxrtE1vRAtkigz4wi4U6A+jWqy99FNQZNd6WtaeeECJit47Zvpiq5LMcNtRitMpC5h4IIyyvXQPQEn9jJLGVgNpSynOSiI+NJjwyiqiojn4iiYyOIyo5l7zyuvbd13pJNdkPjrFPvx+afX8QjnklNuciCAiJJipafFrPER0dQ5D3afYZKTG2zzcoTLLE5noeMW2pV30pFX6b2WmgxEgtI8zlM1bbFQE0UBR9kwvmo5g8+Ft+GjoGTbMjnH6SR+lHCIUsL4zowwtYqKqE6vwdHIiuJrd12xdFc70QpWNctFRi2LBhfKNjjfl+L56LvhAdFS0+chvIbRFNjI/IZG110Ro1gK+1LFl0JIy0sjaGx/NDiD+6iIUaSiiJuu8NrSWnw/ctq8m/f4wLthOYoavMwAH96NZvDCrzDnE2LLddz+u2V2ypTaTgrhOr9ZXp+e2vDBwlgrQ9/nhn1rZxm+JDVFBTcINzpuPRHKzH2A2+PJHGkf/xSGIr8Sci977pxLg7s3pkXxS79EPH6gSn04WTfLHDa9Rn3+a8oQZjf+iF6iwXtj2rJK2t0b26Ekq81rNZT5FRWiZYXo8nrJ2pSUWCD+6rRjF92Nf0GWuJ6Zl0Yj82HS2IIOH4Yow0FVGas4ldz6t5/2h2HdUlUTx3PcWZndvYvWeP+Oxl7972fPawc7sQ9KMXcQvJpa0ndt5JUxW5d5zZMesnhgwbSs+FJ9nz6B0NluaNn6MS40b14JfpG1l9s4jCts6V84yI/XOZJwINNcPdHIiq7Vig0VhGVfQVTq41xdzYCIftlizW10Xh2z4MVZ6P3bUoIipf9KD30W6xbUyn+uF2HGap8fOPyoyatZ1joUXtW4DjLaqoKXXnovlENAZMZbT9HR6mfnD+usTfHElsJf5EhFLWP+bhMXNm9B1Mn64TmLPRjbtC3N6aiyJLJf3hFlaNVmLAv0czzuwUlzKr2naGrWK7ZUar2F5rr9jWC328zMkFI9Ht0R2VuVvYHtRAVsfGEH8nP4L440a/i23wh8S2horch3jvdWC98SJMzcwxNTfHvJ0f40WLWb5qEwd8U4lu98K8MmSNGYSeWMoKpf+IzFYVbXsPLsa23Ml9g3qy/A6yV687agN+RdXsGAeCmmlrUa63xDayI2JbSW28F56bjViweC2rLt0jIvMeXluNmNPjPwweIsR+gzdXE9qKtF6n3WJbEUveTVuWTVbgm4F66Ni5cz/9YwWykpoSSWwlXkcSWwnhb5vFnyYaGxv/2KepmWZZB8YKZXWQ4srNdVMZ2n84XUaYY33yKQlNcgl4g9KnRJ81Z6bKCL7vNQcDZ2+CSt8xZC3EtvSuM1v1RwqxNWbZ1ThC2zUWmE5SwFYcNEYw/D+qjF92mgvZTbRzLs7b5IcTd2wRizRGoiyEe09o9QcWdWimqaGCstxMslKSSUlJJSU1ldR2flKSk0lLzyavrI6adk98rqGp9j531hkw64fuKCjMZNGJ5wSIgOf1tpUfMInwy6tZMbwXI35VQ2/9TdxEhdpc3CP3OVEH5zNfTQnVhbvYH9EBsc3x4/GRlZjMXs7SPT48KK+lXlZJ1k0HXCb9yCD54hNz97LZJ5uGD3S39optc9ZjQvbNYK7mr3RRW4zBnudEf/Si1kJsi924YDYBjYHT0Hb0antxEIl/FJLYSrzIwLxFlrJzM47rN7Jp06aOfTauZ/3mPWw8fg+/mML3LjLwGo3VVD7Yw1ETBXoNGUWXqVvYdDulzRm/zUnu+DmPR2vUYL7TtMHyZCTZ1e+4O9xQTt2TvRxcpMzw0bNZfCqSoA++80x47cqnhJ6zYJbCcLr+PJs5zsJJVv3+1p+O0iiyu+d7ZzJnlDpaRoc4k15LUeu2LwZZEQ1pZzhmPp5RXw1BQcUaJ6945E9Kva5jwqpVfvjuXci0XwczsP88zI8F8lw0TpuSVCzsc16InM5whs/ewLbHNbTrMduaWIJPrWb1PEMMnW9zPa7s5YS7xvDjXF8pbDpwMF8PXIzp3kBiRVb9voGH9optZcxtbq4YyaRh39Bv6ipsrheSVv4BJX8npVRlXuLE4jGMVpyD3o7HPM/+WOGW+Lsgia0EZAcReW0rG9aswMTCEitra6zb/bHC2tICixUOWG5z41ZoXgdmI1eTe9MOl8k/MEBRneEr3bn4jhUj6oNPct64P6oK/em/8AC7H7YxA/Y3mqsg4TwXVoxGSW0iBrtFptaetCrHk8DNU9AYMZwfNOxZfTnpI+/ZvaA27T6+G8cxbbgOE5Zf5JbIOL+8wcQCmh+LIGeeEj9312KEwREuxpS2ETCJzDbzItfWjGVYHyV+1dnIVt/0d79GrjaZyruOWE8ZhsKUlTh5VpL6oeSuIoo07824WCzF2PYi12MqXlk2UVAVSvSlFcxTGkLvbxUZa36E02my97Zpe8W2KPg0+6cNQuOXnmgtPcLxBPmd149Elk9l5GF2z1VFQ3MJS04kEfXFRVkSnxtJbCVEylBDXUURhQV55ObmkZfX0U8uuXkF5BVVUFnb+P5JK7ImGutrqa2qpCw/ioCd8zFW+L8MGK7K2PXeXImsoqa2nsbmJpoa66mrrqKqMoeIyw446nyHQv9fGWV2lH0PKymoqKO+sa11cYXcF3hw23kyE1XGorc+AI+U1k1vIGtqoKG2iurKUooC9nPSeBjDhgym25SNrLuWSGF5LXUNoiyt+3eE8gQPbqzSZLzqZPTWeRBY0fDRWfInRdZMc0MNtdWVVGaFkHjaBItxffhXv/EMM7vAjeAcqurqqZe/XrBBtLFon6riNAo9RYY6dxA/91Xip+k72emZSEWNaJ9GGc1vGkGWTXXoLjYZjEJ9jAUrLucT/0bk8rLtqyqoKIwg8oYTTnPUmDTHHqdr2aRU/PZ6Q3HwZrFvdSrRd7bioDOAEV2+pe84c8xPRxOWWUm16DP1Yuc3i/FusRVt0FjX0g+rKqN4fn0tlkMGMPhrVSasOM259GpyaoS9RN06TEM65YGbcdIbicp4a1a5FpIkvU3+H48kthKfEeE869OEwzzFqXU2rF2xiBnaQxny07/o1qMXA8ctZLr5Hnae8SO4MJW4yDu4blmDi50Z86aqMarH13T/+Ud6qU5hrNEm1m67yd3YvDayT+F1G4J5fGwxxmpajLW6yln528zboCoxgAfn17NJlGfpLF0mDv2R7t270WX4BLT0RUa28SRXn2W0Pev5vdRREHGW44s1GD3BDOMTYWTUCAffuvXPRFaeTfb9o5zfY8fKZUYsGTsMxd5d+Kr7ILqrzMZgySp2XPDHO66M1Oe38D2xFodVFiydpob2wC5827UX3w2bzLjZy3Dec5Zr4aVkvtW85dTlXuGshQ6TNBcw/1AUoW88a1qd9pRnFx3Z6WSBhYkBs3SHMKjb93Ttq8W0VRe4HFHZulxkFbKiJ9w/L2xuoItuv5/p8cP/8P2vQxg8eh4LzVex9cxdvBNllL1hp3eLbTZZ4W6cd3Fig/V8FukrofBTN376qi9DNKYwc80mbE/5cy/2I8Y2KmMpuGGHxZjRqM3dyr6QGnKlUeR/PJLYSnxG5GKbStTt45ywX84aG0ssrFZgaWXDChtrlouPxYrtbDt5j+cFKcRG3Oaayyo22CxjqbU1y+T7rbDB2mY5Ftbrsd/iildMW2Irp4DUO864TFFBfc42Nt1te7GNqgQ/As864uwgjm9phfVya2xsxHlWrmS55RocnI9zOSiD1I46S5HZpdx1Yd0kIVDzd+LiV4JI+r8IZOVZZPkf4uxOG6xWWGO5zIoVwg4rV6xgxfIVWFnZseWcH16xZaQEueFzbBVr7ET7iP1a2kfYwMbahuXLrHHYeZoroaVkvCW2jTTVhPFgy2wWak1g7JrbeCUL0WzdKqc69TFB59eyzd4UE1MRkJgvbbGBheky1mw+zsWwMjJb2kwuto8JOLWZDRbmWIoyLLdZKcq8nOXi/8tFv9h00guvhI6IbRaZoTc4s8EBJ0uReYs+tdxG1N/GipXWS7Fe64zdcT98Yjoutk05DwndPwc9rWmMt7uCV2HHVh6T+Hsiia3E50XWSENNFVVlpZSVllJaXkF5RSUVFRVUlJdRVib+rqqlvlns11BDtfiuXL5fWfmL/SrFp2W/csoqaqhtaHpHtiijIuIyV1fqMGaMGeZHghC++DVnL0fWWEddlTiHKE9pqTiHKE+FOE9lhfh3mThPeRXV9U10eDSx/BFBh4yZrzmOWWtvciNZ9sGZs58N+RB9XSVVFfI6l71s28qXNhDtUV0n2raZxnrRxqJ9yuTtI99PtE9lpfiI9pF/V1Yhb59mmtqqW0MZGW52OM3UQmPWTg4+ef3F8bLGeuqry6goK6GkpJSS1vaXt3uF/Lji/L8PI8vtJLaJ8pbLyyn6wQsbyetQSrnoM/Jg5s3h7HeLrWgDUbcqeX3F7+X9qVzUq0L++a1/Vb1og44hozTiIueXq6MzVT6iEUxCneytfifxz0MSW4m/Lc0VIcRcXMZi7WnMXHEZt1z5lKzPQ33UGS7aTUd7kjWrL4aTItLqf5zDlTVRny4CnrX6TNY0YcXZSMLaP3vuk/Buse0sckj0cMZxggaTzI+w91nFFzgpTuLPQBJbib8xxVTGuHLSZCLTZtqx4mY+aZ3ub4WkNmUTfXwVdvozmep4iytxJV/oCwg6G5EVNqUSf90Z+6njmLziIofCqz5qstnH8rnFtin3Jje3zmHaBDNWHg8m/CNu+Ur8PZHEVuJvjawii/irK1lhOJPJNmdxjS6kqhOVr7khh/LI0xw0Xcj82ZvYcS+fxLbnZv1jaHkp/Y456M1ZivG+ACLLGunw6OxHUh90FLcdphju9uNSeCeKrayB5vIsoi/YYWcyk0nrruMaVSwNH0u8RBJbib83smYaip9w94AJS+fOwXx/AL5JnTVTqZ6yZE+8XeZisnAVK46GE1kk+zIe9/kzqS+jKOYCR22ms2CJHc4eGaR8poyv/ukR3LabsHDXvc4V25p0Sh4fZbeZEQZmO9kTlEdG3WeKKCT+EkhiK/EPoJHyBPkjLBtw2ePOtSeFLev5fvLhzJpcsp9d5dzmDew+7Yt/enPbqyv9E5Hlkxl4iDO7trLl1DOC0mqo+gxpX2PcHR5d3ce2a+H4J3eWNRqpk7904uYe9m45wd6b8STVtQyiS0i8RBJbiX8IddSVpZMQFEZEdDbZtXIX+YkpzyA/PpSgsFRSCz/zTKC/BOUUp8UR+TiK2KwKSj6DGjWXZJCbGE1oYjHZZZ11wjqqClNJDAomIiGfbCG00vCxxJtIYivxj6Kpppoa+WMtwu9+cofYWEuDOH5VvUzKat6FrJH6qipq6ho/z6Sx5kaaGhqokz/G1GlGkb9Aoo6aylrqPufsL4m/FJLYSkhISEhIdDKS2EpISEhISHQykthKSEhISEh0MpLYSkhISEhIdDKS2EpISEhISHQykthK/LOQNYs/bb0D99MiP8db73iVeB35e3VFI/29mknUR9RJmo0u8SaS2Er8c2iuoDApmYz0fIobO2FRi5fUUJqRQnpyDqXSqhZtU5VNfkYqcZlVVHbicpbNVcWU52eTXVhFee1nkHVRr8L0NBJy6qmVHgOSeAVJbCX+ROTOr5zSzChCvL3wvu2B5927+PiIj6cHXh7uuHv64fkwjqSifMrKk4kN9OOe+y3ueHtzV+zn6+WJt9jv9h0vbvmFEZJcRFUbaUV9QRjRvhc5e9qLO0E5FL0ltiIbKRJCHOojzu2Oq/sdbnv5tpTF1+sWt2/54P0gnoRS4UTrCimMfcCDe3fxEOf1vnOLWzev43r9Om5+T3gQl0rsI08CL53lvHs4obm1f5GVpKppLE0g7mkAPrfv4O3tI9pYtIGwjZeHaAMPD9zvhxGUmEtVaSq5sU8IuHMHL09vvOX7Cdt53/HA47aw271H+EUKQa14s+bVNOSIY7iKtrl2D5+kMsqq88mPC+KRsL+HsK2Hlxd3fYUdfLzwFG3rFfCMp8kVFL9cJ0T0m8YCETg95/Fdsa84p6foA26uV3F1c8fnWSIJxcLmoh80pz8kwucy5/0SCMl6l/pVUJ4bI/YTx7rpxi0PUScfcX7fuy3H9fD2JyA6n7y6OupFH0x6dI8AeV/19uTObTfcbrhy7bo3nvfCiEsKIeTxTS6evsqtx6mkSa/8kWhFEluJPxG5KqaTFHiKfUbzMZqgga72SEYqKaOorM24SVPQN7TC0OkSt2LCSEn34OKa5SyfqMPkscooKysxfJQmWmMmMGP+YmZZH2Tf7Rhy33y5amMaEdfX4WK6AOOtnlyPrH17iFfWRGPMbQIOWGBuqIeOtgZqSoqMUhLlUVFBVccQo7XXuJFcTklZdMuC8zazNBmpoIDiKDXUtXQZM2ECelZbcLguHHeQJw8P2GA83x6ni8+JFJ7/M+RVf5B8apJcubzZFtOpk5g+Rgl1FUVGKI9GXWcK02fPRd/uENtuPCc36S7PL7pgYzCTWWPV0FIfgaKSOsqak5g8XR/9ZeuwOvGE0IxXX2ooApq8IKLOOmC9aBXL99/naXkt9XUiILm8lXVzZjN/wmh0NJUYpSjafaQKajpjmb5iOy63M4kXAvoC0W9qo4i+sRGH6ZqMHj6c4UoaqGvrMm76TMy238Q1Vkio0HlZ+Ck89i7H7MB9Yfe21kaWWyWT9GfnOGphiMlkbcZqi741cpQog/ioij45fyXWZ8MILiulMlMEHfbzWaQs7C7KqKg2Gk2d8cL2xiy0PsGliAiehpzhhM1MTFYdYn9AEZXycrw4mcQ/GElsJf5E5C6ogrLsGMI9XbnlMoclOj/zXbd+fKW0BBOXM3j6BOLzNIGU4kLKK9KIfxzAg0OrcDYYQp9ff+F/DdBjovUBLnv44hkYQXhqMdWverZ6cfygw+xaOY/JSzaxyzeZtPLWba8hhKA4layIAPy9bnDUTo+5I//NT92686/hs9BffYY7j5NILq+nrqGMovBbXLRVY/TgnvRUE2XddJqz7u7cCQzmSVIppcU55AScZL/5dKabbWa9VwoFbb5h/UuihsayZBKCH3HniBPrZnZDsde/+M/gKeguO8bxqyJ7exRJSHI+1WXp5Mc/5/6V4xw0V2bcoP/i297KDJ27jc0nRNZ3/ymB0bkUyJWmBXndM0i4tYXts/SZZ3WWQ48LKJHfP28upCAhmKde17h70BLLyQr0+PcP/PjjcLRNXdh8N5THqZWUvprZNouMOPwyt23HozZoFP3GWWNz8BqXPDzxDxHZZ8mLzLbx2WFubl3CvB2+XAh714sIKqnIjyMqwAu/6864mGij+MOP/PjvbgybbMHyU4+5E1tIfn09jdVxZN51wXnScIZ0H84ogzXYH7rCTXc/fAJjSCgpo7A0hMgrK7HRn8XCFee5Gc9nWZpS4stGEluJL4R6yu7aC0fclV7DNOhtcomzoe8Y9ou/gLvtMJRHDKLL9F2s8yp7x4SUahoyHnHXaT5z5yxnwYlowsvbdyOtMfgAZ82HMGjAUL4ZuZJV5yPJa90md851Sb5csZ+LoeEyrM8EE5TfuulVyhNIdrfCVE+PqUvP4JFaT+VfxOnWJrpx1XIg44Z8TZ9pDqy6VUNBW2WviOXZ7qksGvUVfUYvZO6xVCLaCmaaq6lOOc/ptbOZMtmajTdE4NKW9lX547V5HhO6d2NgP01mbPPBo7B122uIICrkCjfWLma++VbWXI8loY3lqDv+Ptss4lwdWTayJ8O69kLZ/CA7Q+Q9qZXGDIrub2KH+UJmL97PAZ8U0t6651yHLP8Bd1bPYMHkJSw+lsCz4k5845DEXwJJbCW+CJqrcgg7sggr9f+m/0hdRjv64iYygrdpIsvHhR2zvmOkwmAULS5w+FlT26+xa4gn3XMjtpNmMMPsGCdjGylpV3IpdsrxIWDPPHQGD6LrD7rMWHONmyJbkt99bUy/y6MD1iyZZ4f1wQCChLi07UoraMh158zSicwav4QVV1MIK/0rqG0paff3s3Vif1R7/Ijyom3seAr5b914bqY87Q6XLLSY2ON7RggRXe1ZTHxN6+aXNNNUHk/4kcVYGExnnJM7nkkVrdveJIWI87asVP4JhQH9GWp0gB3+ZS1Dwr9TRW3aLW5tXoaRgR2Ol8J4/o57ox0X22YKnp7h1MLBaA38mS7aIkg7EkNLcZsryQsR21bos2TZFrZ65ZH1rnuyDaXkeznjbDgNLcP9HHuWS7mU3f6jkcRW4gugkdrip9xxmoFB738zRG0acw9GEJDbuvlVZFmEnFvBChXh3IeoM8n5LtdThVNtQ0RrkzzwdpnCRF1DDHf6EyJ8bfv8nThYYxoJXpuw0x7AiJ+6M3zOJjb4ZlOYG0b46TWsnG2E2c673EqrFnnMuxDHaUjl2YEFmE3UZKztNa7Eln7hk6XkDRlHmKs9lgqDGPq9AhNtTnI+jTYClUJyo46yfbIqyv8ejIbBNvZGVpD5ViOXUJV0iRNLNJk03hizi5nElrdhsBbqKQzYx7GFfVEa2ofvNKwwPRpCYvVvIxL1NBU9wXeHOSvmm2N58DH3M+veaYOOi608eb1P8C59pqv35V/dJqFrfpVbWWVkJt3GzWUhC5Y44nghlKTK1h+0SSOytOtcXT2VCaMNWH5cBAQv7zlL/BORxFbiC6CCiszrnDKdgM7XPRipZcHaO2lEv5UhCZlqfIbvrsXM7d4bhYEGmJ58xiORXbwtYBVk++1mj4EKWjOdcLqVQlnrlvZRR3m0KzcsVJg49Ad+1jZkmt0xzu5YxfZlJiy0u8TV6DI+6D+bqym6t5HtC0ejNMURZ+8k2oohvhyEqFUF8uCQMVP6D+XXX2ZguNWTB6KN3xK0pgTS/TewQlOJ3v8Zx4RlF3DLreYtDapNIP+uI9ZjtNGetZ39YQ3kveeVP00pbtzbPA7dEQP5uttk0e6X8SlqevGWoMoE0m7Zs2LOAuYLG3ilNYk89918jNhSk0J+4CZsJqvQ819DUB5jytozx9m8fRVmCy1YdfoJj7M+FDKJiKM2gmfHTDDR1GD8yhucjurEZ5wkvngksZX482nOpDRkLy4zNRjwbxU09PZxJqFMyOWbCGdZcosra6aj+t1wBo+yY5NXHBliy+t5knB0jdEEn12K5WhNxpuf4eSz96YhbZMfTOyJRSwZO4ifBykzSGs6U8fNYLnDMU4FV1DQnnfEycROcRdwXTkVTfUFLD4WxFPhc9+V1/3pyOqRJV3F3XEiioNH0EXNjtWXYkQO2wZVz4g7Z8wcdQW6DDRk7pYAIsreFrSm7AeE71vATLUZQnREllgqe1uQX6UqjNjrKzFSH8av/zMIrflCoCOqKKgppejhMU6smMXcVYfZ7Zf/+mS4NvgosRU9ryrHg/Pmk5nUvRtDhw5jzLQpaM9fy5Id3jzOqW7nCEkxyV6bcJ6uhtLcrazzyn7H7QaJfwKS2Er8+ZRHkn/TCtPxCvxP14lom17EI6387UUnmoTLDznADiMNfuw1mkEGBzn/LKeN96IKNSvw5M7GqUxR1mGqgw9uCR8hb01ZlAbvYfM8LYZ1+ZE+w9RQM9rHPu8s8tvtNUUt8rzx36zPZFUdpq3z5KaIDto3TetPoLGaisBdHDUeQv+hinw3bQcuHhltlzdZZKDOuuiOGshPY1az4nw8+dVvy1BZ5FWur9BkjJoBs7f68qRe9v532cqKyQ0+wY4ZSqh3+ZahU5Zjdi6CJ3cvcHOTEQaL1+HiHkXK+1LaVj5ObGU0VaYSdmgxK3R+ok/v/vRW0Geusys3UyupbHdXaibvyVGOLFZGddwylp4KawkMJf6ZSGIrAYWxJAdc4PSR/WzbuYe9+4SgtPuzl317drJz/zH2XHrAw8TiDkfvDRn3CdkzBf3RffmqhzLDxixh2fpt7Nu//+V59ot/79+zif0rZ6Gn0Y8fR01B094Dn/hXn+NsRSa8cNJFLtvooKw6iZnbn3Evq3Vbh6ijudyXqytnMPmHf9F3qCpKaz25HNO6uV3IhxOfEHTEkPmqKuguvcDx0EYavtDUVlZXRMqVlThP60b/gQP5TmUOM5Zu4kCLDVpt3mKXQxxwNGPZlH4MH9aXYUZ72epfQcVbxm8UgnOMQ4YjUddajPGRp8QL5X5/9ZupTg/Aa814DIZ/x68quqgssMN8niGWJjasOBfMs4L2Dcl+nNgKGmup9V/P3iUD6PHLYBHcLcL6+BOiWze3l9KIS1yyUkVnlAELtvnxXFT8iw20JDoVSWwlIPMJ4ZecsV9hwQIjE8zMzTFv98cMcxMjjCxsMdl8nRshubTxBMZ7kFEWcYOrKxSZoNiVnkM1UZ+8iHlLzDC1sHh5HguLZZgsMkBfZzCKfX9goM4CFhyM5Fl2G267sYKmkMMcM9FghOZsFh6N4HFJ67aO0FhKaew5jltMYEwP4fQHqzB48UkOPih6f2b2GvLyRRFx2RoLVVVUDPawzb+EuvaNQ35mmlueI32wcxHmij8zeNAIEfgYoGckbNxig1aby/+2WMT8qaPR7Nedwf0VmGh/mTPxtLF6VwlpfjvZMlWVUeNssLoQ3fYjRG8gK0kg5bIFtnqD6dWrt2h7RYZqLcVyjx+Pi5vb3cc+TmxFAStTSL+8Fkf9ofzaox/de07CcKsI7ipECNaBQKkm/jZ31uoyQWEC09a64ln5ymNEEv8oJLGVEB6pgqrCTDJSU0hMSiY5JYWUdn+SSUlOIikljeSsIoqr6uWuqgNUkhl4lL16/dDs0wWFWatZfTWRp7Epb5Uj4v4FDi9RZlyfbxk+eTm2NwuIaeuZzrpSyu9tYsfsUYwU2ZTF5VhCOhYBtFCZ4Mu9bXNZqq+B4oih9Oo7gl6q1tiefU6C2N7+eiYTd9sBGxVVhoxbxxq31HasmytDJl+ov6mJpkbxkf/dkU/Lb168DKH92lBNXYmPCHz0mPxdDxRGzmHxQV/c4l63Q0qKEMKUO7huXsg8IYTD+k5kwR4ffMrenEQlP3Mqse4OrBSBxpDxTqy9mdw+sWrIoz54L3tMtBnYpRd9B05kpos7rsk1HRKrjxLb5gyKn51kt/kCpo4aibJCTwYMGMhos4Psf9pIRx6ZlaX68XDzNKaP0kB72UnOpclE+CHxT0QSW4k/kRfOONptPbYj+jGiywB0V5zibKZwki92eI3aLDfOztdA97s+qM3ezI7gStLbmhRaV0KJ13o26ykySssEy+vxhLU/FX1Bpj/3DtlisWARa3aswn71PMb2HkC/bsrMcLjAzSwhxu1W21QSPNdhK8R2oPZabK8ntENs8ylOvMvtQ7vZ6bSBTZu3sGnLFrZ88LOJzZs3scFpF3uO3ME3uZSC1iN+EFk+NQkn2Guoy7B/D0ZRaw1bHuWR3br5dZ5wf+9C9HoOYchQY6wvPCNCtMfr1ZLbN4GoG3YsGyHqPn4DjrdSaddCWs2FEHWCA2Zj6N11BAPH2LPtXuorC4u0j46LbTm5z85waY18tGY7Njb2bJg3BA3FHvysvRzjI9HElXegM6UHELRtBjOE7TXMjnIyQUZR6yaJfxaS2Er8iQilrH1I4BFTpvYZQu9uk5i36Rb3KsTXrXu8pCmJtEAXbDSV6PeVNuMtznA1u7rtx3leE1tTLK91RGzFjqUxhJ5YycrFxszfflsIVjCxvjtw0uyDUrcuDJvvgpNPFXntzpbfEFvX9ohtNgVR17mwYQ12xuZYLrfC0soKqw9+LFm+3BJz49Ws3XiJGzFF5LQe8YNUJ1J014HVot1+7DqaUQYHOB+RJ+TnDWQiN4s/ySkrHQb1UqbX2A1s804U4cGb/C62loq/i21je8S2Jotq/81snDuSnwaMZbjxOa5HdPxB1Y6JbRWVqTe4ut6YJfPW4CyCtKCIxzw7OJM56gP5uvtExlqdxyOjsv23Sl4RW01zSWz/yUhiKyGyiEaa6muoqa6mqqqaavF3xz5VVFXXUF1bT31jBxbcl9VB0lVcHScxeMBwfhi5DJvTQSQLIXrrGMWPiTxtIpzWcL7rM485Lj48L3vHkLUQ27K7G9mmP5KRWktYdjWO0PYO/VXEkXVnMw6GJsyzOc2VxFpKRfvUxtzgppUiExR+5BsNU2bue05sUXsVPIX4O06sFA530BhH7G4mt0NsG2msK6esIJ+87Bxyc3M79MnJzie/sIzyuqY2nkF+B3nPiT46ByOdXnw1bCYaa+5wP6XybVvU5FLhI4KZOYP4aYgOfYzPc/5ZcRu2kP8ymeiba7BWEnUfvx4H95T2TQ4riiPpzBIsx/1C11F6jFl3j/tJ7ZsU9SrtF9sm6vIfcm/HIpYbmrH0cAhPcppoaMog7+Fm1kxSpv9Xg1Geto6tIttPbW8nT/Pn8VY99JTU0LI4wZlk2YefzZb4WyKJrQTkhhJ7ez87XYQg2K3FwdERx3Z/HHC0t8POaQv2B7zwjix4e/GDd9FYRcX9nRxeMpReQ0fx4/RtbLmT1mbW0JRwE9/1Y9EaOZjvtGyxOh1Nbs07xnEbyql/up9DRioM15yF0clInrZrRYtssv0PsdfYgHmWB9kVkP17tpb/lPjjc5iv3Z9//TwGDcNj3EgobedCGbFEXbNlmaoao/R3sMlXtNEHxfbzU53og5eDGtMVv+UnbVNmHYomMu/tgjaWpBN3wpDl2l/TQ2UKY1ye4Jv0LkkvIOXuFpwnqKI4zg6by7HtWjKzNuMJfhvGM2fEv+inu1DYMIWwgvYq3O+0V2xl+aGEn1uBteFijF1u4J3a2HpvuJaqdA9Omesw/udvGKA+l5lHQ7if1757CHWJntx1Gsek4WOZvOoq7qXyWQoS/0QksZWAnGCRfexmy7rVWK6wxW71ala3+2PHatsVrFjtjO1uD+6E57dfbKkh58YqnCd+z0BFDUba3eFKXNsOtf75cc4u7ouqQj8GGh1m35P3ZCnN8kd/LnDRRgtltQkY7HqG/4fGUpvyyQ0+wpl15hiZ7GGvVzIpr/pTWSH1kcfYsUibIV/3ZISGOXaeqSR80OeKHeqf8fzEEgxVVRi95CSHntZ9kY/+VMZc5vSCoej2+okRczax8X4dhW2VszSce04TmN3v3yiMNcHmRiEJ7zRHPbmPj3NooRLqOiaYHHtOsmiSD1W/JvU2543UGPvzj6jMcWZ7sKz9955foV1iW5JIyOWtbDJbhNm261yJqnhttrmsNoOk02bYjf2J7oM0GbLgDKeeVbVrglxZ1FWurlBFV2E6s108CRSxy/vya4m/L5LYSgihqaehpoKK8jJKS8soK+vop5TSsnLKKmqpbWh6vyOVNVJfXU5FcSH5GcF4bzFg0dD/Q/9hyoxx9OB8iMgWK2pE5tdAfX01VSVFlBSlEHRWCPvobxjatycjTUTW6V9MZlEV1fVNbTg9kRsX3cHDZSqTVcagt86P28mtm1qRNTfSUF1GRWkBhflJpD88zn6L0UwZp8eCbQ9Epibq0rqv/D5uQ00BebHXOG42lrE//Te9h2igs/o655/kU1wq6lPbREOb3ld41yJf7u+YzTQVTcbb3OBSbMvd6i+AJmH6aipLiikpjCDE3YnVav1R+LYPqvM2sfV+PrEl1aKN62lqqqWmXNi5MJnk50fZM1sFtf/8yDBdc2yvx/Ikv5Ly6gYaZW9bvyzyBlet1dBVM2DuDn+eN8naqL+wY4Owd2mJKEs0ET6bWKuhwJD/OwQ1gy3sDs4ktkxsrxP9qwOByutiK5dQ8ePmOmoqy8R5CinICOf5hTXYzBiLyuQ1ONyMJKHq92xe1lhHbWE8Oa6rcZo1iC4/DaLrQBOWHbnHw6ISCkSZat7T5wueneSE8Sg0NUR2fuAhEeLQb48VSPwTkMRW4jPSLJx7KhHuRzi62gIbi7lM0RzK4K5f0/3X3gzUNWDS4q1sPu5DUEEyMWHuXN5gjePyRcycqIpiz2/p0e1neqtMQHueEzYbr3EnOreNRymEO2sI5ekJY0zVRzNmucjYwl4fnG4syybJcxcnnRdjYTqXuVPUUOr7I11/7o/i1NU434wj4rf1IpsTiPc9wq5lM5k+oi8DfvoPP//Sk54K4xmrt4RVLgc49bCQ5LfXlxQIWUm+xq0109FSncm8PQ8IKG/Jd78A8siNdOfC+rU4mhqwUF+FUT270/3bX+inqM0YY3uMt9/APTSanOxAvA9vxcXUELOF2mgO7kWPb37i1wGjUJ+zlDnrTnHwTizZNW/LaGNGAM+2i7ZTmcmkNW54VcnaeHynkOIkT65sXYeT6TwWG6ij1KsnXb/+lf7DtZloboPJnptcfppHbbtmWL3gpdjuCxAZq/x3NSIzf4r/2e1sMF2C+bwZ6I0exKBffqLLgLGoWZ/m1NPsl+st16Y+4vEJa9bPU0dtSE+6dOlGlx8HM1R7CpMtRR/c5cG9uMJ3TJiqIM1vO9tmqqA6w7HlsacyUYT2l17i74QkthKfEZkQ23RivM5w1nkV69euwmaNPXZrHXFwWMtq+9Xi/3vZcy6AkKI04qO8uLndgS1rbcX3a1m1xhF7BwfW2tuxcvVmNuxyxzcu/x33TQtJ89zE5mkqqM/ewkavLLmbfUlTeS6p9w5xYacVq1ZasczKBptVa1hls4o19ls57B1L+EuxTSbp/hmOOoptK1exysEJe3t71tquxHaFNRt2n+TS0yLS2roZJ6ul8tEODizRQWm8LWvd40hr3fTnk09+rBfXt7uwZaUNa9basUpeLwd7HIRt7Jw2s2b/Hbwi48jLfYz/6X3sXrkShzWiDcR+a+T7CVusFu1hs+0iJ30TyG1r5ldlFFk3bTHTGov2gv0cT2im8K3diihJvYfbvm1sFeewF2Wxk9vaUWSbwv72ThtYc+QON0PyqevAS/hfE9tIeYgjZLEsmIdXD7DdxppVlsuxWmHLqlUrWb3WAesdrlx6kv3yvmpt+jOeXXJmq4MtK1aKoMRR1NlBtNOqFViu2cq6wz4EJha3cetEnKsxnrBz1izX1mSM5XmOhbRjfUmJvy2S2Ep8ZkR221BPfW0NtTU11NTVUVcv/i8+dXW11NbK/99Ik0zs19RAw2/7tXz/Yr/6lv3Ep66BxqZ3z36ujL6Gq90YxuqYYHrwCbHC/73cV75gRGNdSzlqxPGra+THk5dBnEd86uWLQrzcWb6v2NZyTnk55EPc8jqI/4vfyn9XL7It+QISb9GYQ+RpU6ymaTB66UlOhxa8Iwv6MxBlbmnj1nq00cY1oo0bmppobm6ksV5sb9nvRVu17Cf/Tr5fy0x0sV+bxsijIuo4e0R2OH7CclbeLGzj9XSyF0P78vO2nuPVsrSco6Us77J227x9z1b8XtbUUpeWfiX/yOstt7n4yPvUqzPq5WVqrH/RFq/XWf5b+XeiD7ZteMj14Pb6WUzT0GfJnscEdPQhYYm/FZLYSvxtkVWFEX91BaY6U9G3usD1zM89E7SG5tIAXG2nM2fMXBafiORxwZdxt/bzIgSpOISHW2eycJo+U7bc51HWW+9P7BTaNUGqM2iqpuLRLnaaTEFz5kZ2+6XzjzS9xEsksZX4G1NGdfwtzllMYrr+SpZdzSa5449qfjy1GeTed2TlXD2mLjnEpchqCv+pDrexjNJne9htMYUx+o7sv5dD/me4cf3niK0wclkkDzcbYzLdiDnyrDZXWhH5n44kthJ/a2SVuSS7rcXOSJ9Jy49xKSyPss8huI3llIS6ccVBn2mm9lhfjSL7Xc8F/yNogrpwnp1Yge1kPRY73eFKbEXL+2g7NjDcMeqDjuC23YSFu+5xKfxziK2Mxup4Mu7twNlgAQtMj3EqooZ2PpYr8TdGEluJvznNQvdCCDhqwYr5szHdcw/vhM5OL4V8ZPvx6MgqTA0sWXrYn3sl9dIjH9RRk+xF4A5zjGauwupgAPI5Q50Z+9QHHcV9hymGu/0+k9hWkh9yjku2MzE02cpG13SyalumS0n8w5HEVuIfQDOVKXcJPL+V7ftv4Sp/Nrahs553lL+tp5LScDe8j+5h2xF/vOPLpVWDfkNWSnWcD+57d7DnqDueyRWU1neeFDXGe/PU9TC7b0YSmNLJQZZM1KMylUS/M5zcupMjbqGEFbZuk/jHI4mtxD+ERhqrckgNjSI6LocckU51juttFj63jPyEKGLC4kkubXrtkSMJgayR5vw4kqKjCEkspqwTh9dlZdnkp8YTlVpKbkVnDlgLZCJ8K0klOy6SkNg8CiqlsQyJ35HEVuIfRbP80R35YyrCv3ee622ioeVxEiEqrd9IvEkjTQ111NSKv9t+XujT0NxEc2MjDY3N4jyt33Uaoh6NdTTIHyH6p06Ek3gnkthKSEhISEh0MpLYSkhISEhIdDKS2EpISEhISHQykthKSEhISEh0MpLYSkhISEhIdDKS2EpISEhISHQykthKSEhISEh0MpLYSkhISEhIdDKS2EpISEhISHQykthKSEhISEh0MpLYSkhISEhIdCrw/wOOkhriX0JICAAAAABJRU5ErkJggg==;imageBorder=default;" parent="1" vertex="1">
          <mxGeometry x="632.5" y="19.99999999999998" width="205" height="56.54" as="geometry" />
        </mxCell>
        <mxCell id="GrSDNWI7c1scyn-xyYOx-1804" value="&lt;div style=&quot;margin-top: 0pt; margin-bottom: 0pt; margin-left: 0in; direction: ltr; unicode-bidi: embed; word-break: normal;&quot;&gt;&lt;span style=&quot;font-size:18.0pt&quot;&gt;&lt;/span&gt;H(X,Y)&amp;nbsp;es la entropía&lt;br/&gt;conjunta&lt;br&gt;&lt;/div&gt;" style="whiteSpace=wrap;html=1;fontSize=14;fillColor=#f5af58;strokeColor=none;fontColor=#FFFFFF;rounded=1;shadow=0;labelBackgroundColor=none;strokeWidth=3;spacing=5;arcSize=7;fontFamily=Helvetica;" parent="1" vertex="1">
          <mxGeometry x="445" y="19.9" width="140" height="56.73" as="geometry" />
        </mxCell>
        <mxCell id="GrSDNWI7c1scyn-xyYOx-1817" style="edgeStyle=orthogonalEdgeStyle;rounded=0;orthogonalLoop=1;jettySize=auto;html=1;entryX=0;entryY=0.5;entryDx=0;entryDy=0;fontFamily=Helvetica;fontSize=14;fontColor=#FFFFFF;" parent="1" source="GrSDNWI7c1scyn-xyYOx-1806" target="GrSDNWI7c1scyn-xyYOx-1810" edge="1">
          <mxGeometry relative="1" as="geometry" />
        </mxCell>
        <mxCell id="GrSDNWI7c1scyn-xyYOx-1806" value="&lt;div style=&quot;margin-top: 0pt; margin-bottom: 0pt; margin-left: 0in; direction: ltr; unicode-bidi: embed; word-break: normal;&quot;&gt;&lt;span style=&quot;font-size:18.0pt&quot;&gt;&lt;/span&gt;&lt;p style=&quot;language:es-MX;margin-top:0pt;margin-bottom:0pt;margin-left:0in;&lt;br/&gt;text-align:left;direction:ltr;unicode-bidi:embed;mso-line-break-override:none;&lt;br/&gt;word-break:normal;punctuation-wrap:hanging&quot;&gt;Mide&lt;br/&gt;la cantidad de información promedio en bits de&amp;nbsp;X&amp;nbsp;e Y&lt;/p&gt;&lt;/div&gt;" style="whiteSpace=wrap;html=1;fontSize=14;fillColor=#f5af58;strokeColor=none;fontColor=#FFFFFF;rounded=1;shadow=0;labelBackgroundColor=none;strokeWidth=3;spacing=5;arcSize=7;fontFamily=Helvetica;" parent="1" vertex="1">
          <mxGeometry x="445" y="-87" width="140" height="86.73" as="geometry" />
        </mxCell>
        <mxCell id="GrSDNWI7c1scyn-xyYOx-1811" value="" style="edgeStyle=orthogonalEdgeStyle;rounded=0;orthogonalLoop=1;jettySize=auto;html=1;fontFamily=Helvetica;fontSize=14;fontColor=#FFFFFF;" parent="1" source="GrSDNWI7c1scyn-xyYOx-1807" target="GrSDNWI7c1scyn-xyYOx-1810" edge="1">
          <mxGeometry relative="1" as="geometry" />
        </mxCell>
        <mxCell id="GrSDNWI7c1scyn-xyYOx-1807" value="&lt;div style=&quot;margin-top: 0pt; margin-bottom: 0pt; margin-left: 0in; direction: ltr; unicode-bidi: embed; word-break: normal;&quot;&gt;&lt;span style=&quot;font-size:18.0pt&quot;&gt;&lt;/span&gt;H(X|Y)&amp;nbsp;es la entropía&lt;br/&gt;de&amp;nbsp;X&amp;nbsp;condicionada en Y&lt;br&gt;&lt;/div&gt;" style="whiteSpace=wrap;html=1;fontSize=14;fillColor=#f5af58;strokeColor=none;fontColor=#FFFFFF;rounded=1;shadow=0;labelBackgroundColor=none;strokeWidth=3;spacing=5;arcSize=7;fontFamily=Helvetica;" parent="1" vertex="1">
          <mxGeometry x="665" y="-70" width="140" height="69.73" as="geometry" />
        </mxCell>
        <mxCell id="GrSDNWI7c1scyn-xyYOx-1810" value="&lt;p&gt;Cantidad de información promedio en bits de&amp;nbsp;X&amp;nbsp;considerando que conocemos&amp;nbsp;Y&amp;nbsp;o también la “Incerteza de&amp;nbsp;X&amp;nbsp;dado que&lt;br&gt;observamos&amp;nbsp;Y”&lt;/p&gt;" style="whiteSpace=wrap;html=1;fontSize=14;fillColor=#f5af58;strokeColor=none;fontColor=#FFFFFF;rounded=1;shadow=0;labelBackgroundColor=none;strokeWidth=3;spacing=5;arcSize=7;" parent="1" vertex="1">
          <mxGeometry x="550" y="-160" width="370" height="70.01" as="geometry" />
        </mxCell>
        <mxCell id="GrSDNWI7c1scyn-xyYOx-1816" value="" style="edgeStyle=orthogonalEdgeStyle;rounded=0;orthogonalLoop=1;jettySize=auto;html=1;fontFamily=Helvetica;fontSize=14;fontColor=#FFFFFF;" parent="1" source="GrSDNWI7c1scyn-xyYOx-1812" target="GrSDNWI7c1scyn-xyYOx-1815" edge="1">
          <mxGeometry relative="1" as="geometry" />
        </mxCell>
        <mxCell id="GrSDNWI7c1scyn-xyYOx-1812" value="&lt;div style=&quot;margin-top: 0pt; margin-bottom: 0pt; margin-left: 0in; direction: ltr; unicode-bidi: embed; word-break: normal;&quot;&gt;&lt;span style=&quot;font-size:18.0pt&quot;&gt;&lt;/span&gt;&lt;p&gt;Si&amp;nbsp;X&amp;nbsp;e&amp;nbsp;Y&amp;nbsp;son&lt;br&gt;independientes entonces&amp;nbsp;H(X|Y)=H(X)&amp;nbsp;y&amp;nbsp;H(X,Y)=H(X)+H(Y)&amp;nbsp;y MI((X,Y) = 0&lt;/p&gt;&lt;/div&gt;" style="whiteSpace=wrap;html=1;fontSize=14;fillColor=#f5af58;strokeColor=none;fontColor=#FFFFFF;rounded=1;shadow=0;labelBackgroundColor=none;strokeWidth=3;spacing=5;arcSize=7;fontFamily=Helvetica;" parent="1" vertex="1">
          <mxGeometry x="875" y="11.7" width="315" height="73.13" as="geometry" />
        </mxCell>
        <mxCell id="GrSDNWI7c1scyn-xyYOx-1818" style="edgeStyle=orthogonalEdgeStyle;rounded=0;orthogonalLoop=1;jettySize=auto;html=1;entryX=1;entryY=0.5;entryDx=0;entryDy=0;fontFamily=Helvetica;fontSize=14;fontColor=#FFFFFF;" parent="1" source="GrSDNWI7c1scyn-xyYOx-1815" target="GrSDNWI7c1scyn-xyYOx-1810" edge="1">
          <mxGeometry relative="1" as="geometry" />
        </mxCell>
        <mxCell id="GrSDNWI7c1scyn-xyYOx-1815" value="&lt;p style=&quot;language:es-MX;margin-top:0pt;margin-bottom:0pt;margin-left:0in;&lt;br/&gt;text-align:left;direction:ltr;unicode-bidi:embed;mso-line-break-override:none;&lt;br/&gt;word-break:normal;punctuation-wrap:hanging&quot;&gt;La&lt;br/&gt;información mutua mide la información compartida por&amp;nbsp;X&amp;nbsp;e&amp;nbsp;Y, es&lt;br/&gt;decir que tan dependientes son entre sí&lt;/p&gt;" style="whiteSpace=wrap;html=1;fontSize=14;fillColor=#f5af58;strokeColor=none;fontColor=#FFFFFF;rounded=1;shadow=0;labelBackgroundColor=none;strokeWidth=3;spacing=5;arcSize=7;" parent="1" vertex="1">
          <mxGeometry x="880" y="-75.41" width="310" height="75.14" as="geometry" />
        </mxCell>
        <mxCell id="AdDeWfgGOmuDd7LMZuzZ-1786" style="edgeStyle=orthogonalEdgeStyle;rounded=0;orthogonalLoop=1;jettySize=auto;html=1;entryX=0.5;entryY=1;entryDx=0;entryDy=0;" edge="1" parent="1" source="AdDeWfgGOmuDd7LMZuzZ-1781" target="AdDeWfgGOmuDd7LMZuzZ-1784">
          <mxGeometry relative="1" as="geometry">
            <Array as="points">
              <mxPoint x="1220" y="490" />
            </Array>
          </mxGeometry>
        </mxCell>
        <mxCell id="AdDeWfgGOmuDd7LMZuzZ-1787" style="edgeStyle=orthogonalEdgeStyle;rounded=0;orthogonalLoop=1;jettySize=auto;html=1;" edge="1" parent="1" source="AdDeWfgGOmuDd7LMZuzZ-1781" target="AdDeWfgGOmuDd7LMZuzZ-1785">
          <mxGeometry relative="1" as="geometry">
            <Array as="points">
              <mxPoint x="1220" y="530" />
            </Array>
          </mxGeometry>
        </mxCell>
        <mxCell id="AdDeWfgGOmuDd7LMZuzZ-1781" value="Clasificaciones" style="whiteSpace=wrap;html=1;fontSize=14;fillColor=#61c6ce;strokeColor=none;fontColor=#FFFFFF;rounded=1;shadow=0;labelBackgroundColor=none;strokeWidth=3;spacing=5;fontStyle=0;arcSize=7;" vertex="1" parent="1">
          <mxGeometry x="1030" y="480" width="120" height="60" as="geometry" />
        </mxCell>
        <mxCell id="AdDeWfgGOmuDd7LMZuzZ-1789" value="" style="edgeStyle=orthogonalEdgeStyle;rounded=0;orthogonalLoop=1;jettySize=auto;html=1;" edge="1" parent="1" source="AdDeWfgGOmuDd7LMZuzZ-1784" target="AdDeWfgGOmuDd7LMZuzZ-1788">
          <mxGeometry relative="1" as="geometry" />
        </mxCell>
        <mxCell id="AdDeWfgGOmuDd7LMZuzZ-1793" style="edgeStyle=orthogonalEdgeStyle;rounded=0;orthogonalLoop=1;jettySize=auto;html=1;entryX=0.5;entryY=1;entryDx=0;entryDy=0;" edge="1" parent="1" source="AdDeWfgGOmuDd7LMZuzZ-1784" target="AdDeWfgGOmuDd7LMZuzZ-1792">
          <mxGeometry relative="1" as="geometry" />
        </mxCell>
        <mxCell id="AdDeWfgGOmuDd7LMZuzZ-1784" value="Personales" style="whiteSpace=wrap;html=1;fontSize=14;fillColor=#61c6ce;strokeColor=none;fontColor=#FFFFFF;rounded=1;shadow=0;labelBackgroundColor=none;strokeWidth=3;spacing=5;fontStyle=0;arcSize=7;" vertex="1" parent="1">
          <mxGeometry x="1160" y="430" width="120" height="40" as="geometry" />
        </mxCell>
        <mxCell id="AdDeWfgGOmuDd7LMZuzZ-1791" value="" style="edgeStyle=orthogonalEdgeStyle;rounded=0;orthogonalLoop=1;jettySize=auto;html=1;" edge="1" parent="1" source="AdDeWfgGOmuDd7LMZuzZ-1785" target="AdDeWfgGOmuDd7LMZuzZ-1790">
          <mxGeometry relative="1" as="geometry" />
        </mxCell>
        <mxCell id="AdDeWfgGOmuDd7LMZuzZ-1785" value="Masivos" style="whiteSpace=wrap;html=1;fontSize=14;fillColor=#61c6ce;strokeColor=none;fontColor=#FFFFFF;rounded=1;shadow=0;labelBackgroundColor=none;strokeWidth=3;spacing=5;fontStyle=0;arcSize=7;" vertex="1" parent="1">
          <mxGeometry x="1160" y="550" width="120" height="40" as="geometry" />
        </mxCell>
        <mxCell id="AdDeWfgGOmuDd7LMZuzZ-1788" value="Los canales masivos pueden ser escrito, radial, televisivo e informático." style="whiteSpace=wrap;html=1;fontSize=14;fillColor=#61c6ce;strokeColor=none;fontColor=#FFFFFF;rounded=1;shadow=0;labelBackgroundColor=none;strokeWidth=3;spacing=5;fontStyle=0;arcSize=7;" vertex="1" parent="1">
          <mxGeometry x="1300" y="494.5" width="120" height="95.5" as="geometry" />
        </mxCell>
        <mxCell id="AdDeWfgGOmuDd7LMZuzZ-1790" value="Los canales masivos pueden ser escrito, radial, televisivo e informático." style="whiteSpace=wrap;html=1;fontSize=14;fillColor=#61c6ce;strokeColor=none;fontColor=#FFFFFF;rounded=1;shadow=0;labelBackgroundColor=none;strokeWidth=3;spacing=5;fontStyle=0;arcSize=7;" vertex="1" parent="1">
          <mxGeometry x="1160" y="620" width="120" height="90" as="geometry" />
        </mxCell>
        <mxCell id="AdDeWfgGOmuDd7LMZuzZ-1792" value="Puede darse de uno a uno o de uno a varios." style="whiteSpace=wrap;html=1;fontSize=14;fillColor=#61c6ce;strokeColor=none;fontColor=#FFFFFF;rounded=1;shadow=0;labelBackgroundColor=none;strokeWidth=3;spacing=5;fontStyle=0;arcSize=7;" vertex="1" parent="1">
          <mxGeometry x="1300" y="340" width="120" height="60" as="geometry" />
        </mxCell>
      </root>
    </mxGraphModel>
  </diagram>
</mxfile>
